<svg width="300" height="300" viewBox="0 0 300 300" fill="none" xmlns="http://www.w3.org/2000/svg">
<path d="M150 271.167C163.807 271.167 175 259.974 175 246.167C175 232.36 163.807 221.167 150 221.167C136.193 221.167 125 232.36 125 246.167C125 259.974 136.193 271.167 150 271.167Z" fill="#8FC4D7"/>
<path d="M243.167 147.583L244.083 146.167C244.988 144.764 245.605 143.196 245.898 141.553C246.191 139.91 246.154 138.225 245.789 136.597C245.425 134.968 244.74 133.428 243.775 132.067C242.809 130.705 241.583 129.55 240.167 128.667C213.071 111.928 181.849 103.069 150 103.083C145.333 103.083 140.75 103.083 136.25 103.667L163 130.417C185.456 132.401 207.14 139.591 226.333 151.417C229.088 153.086 232.384 153.62 235.525 152.904C238.666 152.189 241.406 150.281 243.167 147.583Z" fill="#8FC4D7"/>
<path d="M273 78.1667C245.227 60.8449 214.11 49.5825 181.684 45.1164C149.258 40.6504 116.255 43.0812 84.8333 52.25L106.75 74.1667C159.111 62.9258 213.792 72.5525 259.167 101C261.907 102.619 265.164 103.123 268.265 102.41C271.367 101.697 274.076 99.8198 275.833 97.1667L276.75 95.75C277.675 94.3546 278.313 92.7886 278.626 91.1436C278.938 89.4987 278.919 87.8079 278.57 86.1703C278.221 84.5327 277.548 82.9813 276.592 81.607C275.635 80.2327 274.414 79.0631 273 78.1667Z" fill="#8FC4D7"/>
<path d="M25 39.5833L50.8333 65.4167C42.4645 69.2804 34.3384 73.6496 26.5 78.5C25.0655 79.3761 23.8211 80.5308 22.8403 81.8958C21.8594 83.2608 21.162 84.8085 20.7891 86.4475C20.4163 88.0865 20.3756 89.7836 20.6694 91.4385C20.9633 93.0935 21.5857 94.6729 22.5 96.0833L23.4167 97.5C25.1742 100.153 27.8834 102.03 30.9849 102.743C34.0863 103.457 37.3433 102.952 40.0833 101.333C49.8174 95.2101 60.0477 89.9138 70.6667 85.5L96.8333 111.667C83.5918 115.924 70.9158 121.772 59.0833 129.083C57.6739 129.973 56.4552 131.134 55.4981 132.498C54.5409 133.863 53.8644 135.404 53.5077 137.032C53.1511 138.66 53.1215 140.343 53.4206 141.982C53.7197 143.622 54.3415 145.186 55.25 146.583L56.1667 148C57.9242 150.653 60.6334 152.53 63.7349 153.243C66.8363 153.957 70.0933 153.452 72.8333 151.833C86.9698 143.089 102.5 136.832 118.75 133.333L148.75 163.333C128.79 163.537 109.25 169.091 92.1667 179.417C90.76 180.298 89.5431 181.451 88.5869 182.809C87.6307 184.166 86.9545 185.7 86.5976 187.321C86.2408 188.942 86.2105 190.619 86.5085 192.252C86.8065 193.885 87.4269 195.443 88.3333 196.833L89.1667 198.167C91.0004 200.877 93.8118 202.772 97.0119 203.456C100.212 204.139 103.552 203.558 106.333 201.833C117.549 195.171 130.147 191.18 143.153 190.168C156.159 189.156 169.223 191.152 181.333 196L241.667 256.25L253.417 244.5L36.75 27.8333L25 39.5833Z" fill="#8FC4D7"/>
</svg>
