<svg id="svg" version="1.1" xmlns="http://www.w3.org/2000/svg" xmlns:xlink="http://www.w3.org/1999/xlink" width="400" height="219.84732824427482" viewBox="0, 0, 400,219.84732824427482"><g id="svgg"><path id="path0" d="M0.000 109.951 L 0.000 219.901 200.000 219.901 L 400.000 219.901 400.000 109.951 L 400.000 0.000 200.000 0.000 L 0.000 0.000 0.000 109.951 M88.476 67.874 C 89.291 68.009,90.584 69.357,92.139 71.693 C 92.320 71.966,92.839 72.667,93.293 73.251 C 93.747 73.836,94.118 74.365,94.118 74.427 C 94.118 74.489,94.637 75.227,95.272 76.067 C 95.907 76.906,96.954 78.318,97.598 79.204 C 98.243 80.089,99.651 82.022,100.727 83.499 C 103.774 87.680,110.317 96.755,114.090 102.034 C 117.936 107.415,120.921 111.465,121.378 111.922 C 121.990 112.534,122.042 110.719,122.044 88.936 L 122.045 69.131 122.719 68.485 L 123.393 67.839 129.811 67.839 L 136.229 67.839 136.833 68.374 L 137.438 68.908 137.438 105.494 L 137.438 142.080 136.833 142.837 L 136.229 143.595 130.806 143.595 L 125.383 143.595 124.868 142.963 C 124.585 142.616,124.156 142.059,123.914 141.725 C 123.672 141.392,122.584 139.904,121.495 138.418 C 120.407 136.933,118.329 134.070,116.877 132.057 C 115.426 130.043,113.694 127.670,113.029 126.783 C 112.364 125.896,111.622 124.900,111.380 124.570 C 111.138 124.240,109.188 121.583,107.047 118.665 C 101.099 110.558,101.036 110.473,98.835 107.422 C 97.701 105.849,96.695 104.464,96.600 104.343 C 96.504 104.222,96.130 103.678,95.767 103.134 C 95.404 102.589,95.028 102.045,94.931 101.924 C 94.774 101.727,93.019 99.308,92.220 98.186 C 91.527 97.213,91.486 98.432,91.482 119.978 C 91.480 135.153,91.407 141.757,91.236 142.248 C 90.826 143.423,90.595 143.463,83.653 143.556 L 77.256 143.643 76.537 142.794 L 75.818 141.946 75.982 114.349 C 76.072 99.170,76.206 82.656,76.281 77.651 L 76.416 68.551 77.182 68.140 C 77.976 67.715,86.321 67.518,88.476 67.874 M162.402 68.242 C 162.830 68.501,163.577 69.516,164.491 71.079 C 165.275 72.417,166.113 73.837,166.355 74.234 C 169.050 78.655,170.177 80.531,172.268 84.066 C 173.612 86.339,174.885 88.491,175.096 88.849 C 175.308 89.207,175.654 89.788,175.866 90.139 C 176.078 90.491,176.730 91.580,177.316 92.558 C 178.759 94.967,178.451 95.163,181.557 89.869 C 182.751 87.834,183.876 85.932,184.057 85.640 C 184.239 85.349,185.959 82.412,187.881 79.114 C 191.609 72.714,193.460 69.782,194.441 68.719 C 194.776 68.356,195.051 67.985,195.051 67.894 C 195.052 67.691,209.692 67.716,210.425 67.922 C 210.717 68.003,211.150 68.331,211.389 68.650 C 211.982 69.445,212.113 69.193,206.487 78.068 C 205.338 79.880,204.250 81.606,204.068 81.902 C 203.431 82.942,200.436 87.768,200.110 88.281 C 199.929 88.565,199.294 89.623,198.699 90.631 C 198.105 91.639,196.811 93.702,195.825 95.215 C 193.871 98.214,193.076 99.503,192.116 101.234 C 191.772 101.855,191.351 102.520,191.182 102.711 C 191.013 102.902,190.874 103.130,190.874 103.218 C 190.874 103.305,190.330 104.319,189.665 105.472 C 188.999 106.624,188.455 107.635,188.455 107.719 C 188.455 107.803,188.086 108.413,187.634 109.076 L 186.813 110.280 186.687 126.443 C 186.617 135.333,186.482 142.776,186.387 142.985 C 186.121 143.565,185.309 143.625,178.629 143.552 L 172.431 143.485 171.757 142.840 L 171.083 142.194 171.083 126.552 L 171.083 110.910 168.114 106.245 C 166.482 103.679,165.146 101.492,165.146 101.385 C 165.146 101.278,165.071 101.158,164.981 101.118 C 164.744 101.012,163.606 99.227,163.606 98.960 C 163.606 98.837,163.526 98.736,163.427 98.736 C 163.329 98.736,163.080 98.414,162.875 98.021 C 162.670 97.628,162.330 97.045,162.119 96.725 C 161.410 95.646,158.096 90.269,156.244 87.191 C 151.299 78.973,149.893 76.704,147.790 73.557 C 145.132 69.576,144.880 68.158,146.784 67.881 C 149.007 67.557,161.758 67.852,162.402 68.242 M234.179 68.315 C 234.729 68.995,234.847 73.805,234.884 97.196 C 234.902 107.900,234.976 119.131,235.050 122.155 L 235.184 127.653 244.200 127.788 C 255.411 127.956,258.001 128.110,258.664 128.647 C 259.381 129.228,259.438 142.355,258.728 143.140 L 258.303 143.609 239.449 143.547 L 220.596 143.485 220.023 142.947 L 219.450 142.409 219.511 105.784 C 219.575 66.650,219.523 68.405,220.630 67.945 C 221.770 67.470,233.760 67.798,234.179 68.315 M301.924 68.831 C 304.751 69.241,305.709 69.480,309.511 70.721 C 327.473 76.584,338.473 97.378,333.231 115.558 C 332.447 118.275,332.161 119.161,331.669 120.396 C 327.211 131.587,317.621 139.810,305.223 143.073 C 301.784 143.978,288.520 143.409,287.091 142.296 C 286.964 142.197,286.564 142.047,286.201 141.963 C 285.562 141.814,281.196 139.688,279.793 138.844 C 279.413 138.615,278.523 138.087,277.814 137.670 C 274.308 135.610,269.772 131.060,267.059 126.883 C 265.845 125.014,263.455 120.351,263.447 119.835 C 263.444 119.648,263.350 119.400,263.239 119.285 C 261.012 116.984,260.381 100.439,262.334 95.547 C 262.431 95.305,262.768 94.306,263.084 93.326 C 263.878 90.862,266.320 86.179,267.889 84.112 C 271.906 78.818,276.583 74.873,282.114 72.110 C 283.548 71.394,284.861 70.808,285.032 70.808 C 285.204 70.808,285.438 70.717,285.553 70.606 C 285.953 70.218,290.322 69.151,292.798 68.837 C 294.716 68.593,300.262 68.590,301.924 68.831 M295.547 84.581 C 294.576 84.706,291.176 85.536,290.721 85.760 C 290.533 85.852,289.736 86.212,288.950 86.559 C 288.164 86.907,287.471 87.245,287.411 87.311 C 287.350 87.378,286.814 87.713,286.220 88.056 C 281.844 90.585,277.757 96.841,277.082 102.042 C 276.673 105.191,276.939 111.270,277.519 112.040 C 277.610 112.161,277.755 112.606,277.842 113.029 C 278.596 116.708,282.915 122.111,287.013 124.502 C 290.396 126.476,293.138 127.312,296.734 127.468 C 303.131 127.746,307.422 126.062,311.954 121.493 C 314.413 119.014,315.676 117.087,317.453 113.096 C 318.469 110.816,318.430 101.134,317.396 98.741 C 313.142 88.907,304.665 83.413,295.547 84.581 " stroke="none" fill="#f4fbf3" fill-rule="evenodd"></path><path id="path1" d="M77.905 68.108 C 76.243 68.315,76.396 64.912,76.222 105.537 L 76.068 141.837 76.681 142.630 L 77.295 143.424 83.562 143.294 C 90.820 143.145,90.737 143.158,91.034 142.086 C 91.177 141.572,91.257 133.487,91.258 119.474 C 91.259 104.561,91.332 97.617,91.488 97.520 C 91.850 97.297,92.147 97.643,94.805 101.386 C 99.288 107.696,101.023 110.085,107.709 119.157 C 109.970 122.225,112.166 125.209,112.589 125.789 C 113.013 126.368,113.962 127.668,114.699 128.677 C 115.435 129.686,117.650 132.738,119.621 135.459 C 121.591 138.180,123.681 141.010,124.266 141.748 L 125.328 143.089 127.349 143.232 C 128.460 143.311,130.883 143.375,132.733 143.375 L 136.096 143.375 136.657 142.640 L 137.218 141.905 137.218 105.515 L 137.218 69.126 136.651 68.592 L 136.083 68.059 129.742 68.059 L 123.400 68.059 122.832 68.592 L 122.265 69.126 122.265 90.293 C 122.265 105.014,122.192 111.650,122.026 112.080 L 121.787 112.699 120.955 111.769 C 120.497 111.257,119.535 110.020,118.816 109.020 C 107.655 93.487,105.817 90.941,99.132 81.742 C 97.354 79.296,94.880 75.874,93.634 74.138 C 89.842 68.853,89.334 68.305,88.057 68.134 C 86.903 67.979,79.101 67.959,77.905 68.108 M147.611 68.112 C 145.132 68.253,145.180 69.092,147.906 73.272 C 150.552 77.329,151.115 78.217,151.922 79.604 C 152.309 80.269,153.959 82.991,155.590 85.651 C 157.221 88.312,159.154 91.479,159.886 92.688 C 160.617 93.898,161.580 95.459,162.026 96.157 C 162.472 96.855,163.718 98.834,164.796 100.555 C 165.873 102.275,167.198 104.376,167.739 105.223 C 168.280 106.069,169.069 107.306,169.492 107.971 C 169.914 108.637,170.495 109.533,170.782 109.962 L 171.303 110.744 171.315 126.455 L 171.327 142.166 172.021 142.716 L 172.714 143.266 179.254 143.266 C 184.214 143.266,185.861 143.199,186.071 142.989 C 186.286 142.774,186.374 139.124,186.467 126.604 L 186.586 110.496 187.741 108.466 C 188.375 107.349,188.895 106.390,188.895 106.334 C 188.895 106.186,193.611 98.186,194.568 96.711 C 195.508 95.263,199.088 89.512,201.289 85.917 C 202.119 84.562,203.116 82.958,203.504 82.353 C 203.892 81.748,204.485 80.808,204.820 80.264 C 205.155 79.720,206.567 77.493,207.957 75.316 C 212.961 67.479,213.348 67.955,201.960 67.951 L 195.345 67.949 194.781 68.582 C 193.770 69.717,192.813 71.257,186.914 81.253 C 186.700 81.616,184.986 84.535,183.104 87.741 C 181.222 90.946,179.434 93.865,179.130 94.228 L 178.577 94.887 178.167 94.371 C 177.941 94.087,176.626 91.921,175.244 89.558 C 172.193 84.337,172.537 84.915,168.774 78.701 C 165.466 73.237,165.447 73.206,164.184 70.969 C 162.914 68.719,162.367 68.263,160.731 68.092 C 159.369 67.950,150.221 67.964,147.611 68.112 M221.188 68.095 C 219.667 68.355,219.799 64.989,219.722 105.634 L 219.652 142.172 220.234 142.719 L 220.816 143.266 239.586 143.332 L 258.356 143.398 258.614 142.916 C 259.156 141.903,259.304 131.444,258.804 129.490 C 258.658 128.919,258.449 128.651,258.076 128.557 C 257.165 128.329,246.848 127.988,240.742 127.985 L 234.864 127.982 234.802 119.461 C 234.768 114.775,234.706 104.557,234.665 96.756 C 234.561 76.781,234.377 68.703,234.019 68.345 C 233.736 68.063,222.641 67.846,221.188 68.095 M293.458 69.046 C 280.247 70.265,267.633 80.612,263.164 93.898 C 259.754 104.032,260.817 115.204,266.113 124.904 C 270.484 132.911,279.197 139.647,289.060 142.645 C 291.053 143.250,303.756 143.245,305.882 142.637 C 314.825 140.083,321.352 135.742,326.262 129.082 C 328.292 126.328,329.412 124.719,329.412 124.555 C 329.412 124.482,329.592 124.159,329.813 123.838 C 330.574 122.732,331.808 119.542,332.932 115.778 C 335.299 107.849,334.305 97.382,330.447 89.614 C 326.855 82.382,319.626 75.134,313.359 72.482 C 312.573 72.149,311.732 71.787,311.490 71.678 C 306.785 69.554,299.492 68.490,293.458 69.046 M302.364 84.758 C 309.561 86.639,314.914 91.565,317.670 98.846 C 318.981 102.310,318.664 111.095,317.105 114.468 C 310.335 129.122,293.334 132.388,282.433 121.130 C 274.539 112.977,274.622 98.636,282.610 90.634 C 287.703 85.531,295.943 83.080,302.364 84.758 " stroke="none" fill="#d42c3c" fill-rule="evenodd"></path><path id="path2" d="M149.260 67.885 C 149.534 67.938,149.930 67.936,150.140 67.881 C 150.350 67.826,150.126 67.783,149.643 67.785 C 149.159 67.787,148.987 67.832,149.260 67.885 M296.488 68.771 C 297.066 68.816,297.957 68.816,298.467 68.770 C 298.978 68.724,298.505 68.687,297.416 68.687 C 296.328 68.688,295.910 68.726,296.488 68.771 M219.551 77.515 C 219.551 79.571,219.584 80.442,219.625 79.450 C 219.665 78.458,219.666 76.776,219.625 75.712 C 219.585 74.648,219.551 75.459,219.551 77.515 M234.719 82.903 C 234.719 84.415,234.754 85.033,234.797 84.277 C 234.840 83.521,234.840 82.284,234.797 81.528 C 234.754 80.772,234.719 81.391,234.719 82.903 M76.173 98.846 C 76.173 100.539,76.207 101.202,76.249 100.320 C 76.291 99.438,76.291 98.053,76.249 97.242 C 76.206 96.431,76.172 97.152,76.173 98.846 M91.329 99.835 C 91.329 100.621,91.369 100.943,91.418 100.550 C 91.467 100.157,91.467 99.513,91.418 99.120 C 91.369 98.727,91.329 99.049,91.329 99.835 M318.283 105.992 C 318.283 107.625,318.318 108.293,318.360 107.477 C 318.402 106.660,318.402 105.324,318.360 104.508 C 318.318 103.692,318.283 104.360,318.283 105.992 M334.322 106.542 C 334.323 107.389,334.362 107.708,334.410 107.252 C 334.458 106.796,334.457 106.103,334.408 105.713 C 334.360 105.322,334.321 105.695,334.322 106.542 M186.577 125.563 C 186.577 130.946,186.606 133.147,186.641 130.456 C 186.676 127.765,186.676 123.362,186.641 120.671 C 186.606 117.980,186.577 120.181,186.577 125.563 M282.903 121.605 C 283.375 122.089,283.811 122.485,283.872 122.485 C 283.932 122.485,283.595 122.089,283.123 121.605 C 282.650 121.121,282.214 120.726,282.154 120.726 C 282.093 120.726,282.430 121.121,282.903 121.605 M91.357 131.941 C 91.357 135.629,91.387 137.139,91.423 135.294 C 91.460 133.450,91.460 130.432,91.423 128.587 C 91.387 126.743,91.357 128.252,91.357 131.941 M236.009 127.923 C 236.462 127.970,237.205 127.970,237.658 127.923 C 238.112 127.875,237.741 127.836,236.833 127.836 C 235.926 127.836,235.555 127.875,236.009 127.923 M75.964 135.019 C 75.964 138.829,75.994 140.388,76.030 138.483 C 76.067 136.578,76.067 133.461,76.030 131.556 C 75.994 129.651,75.964 131.209,75.964 135.019 M84.937 143.533 C 85.269 143.583,85.814 143.583,86.146 143.533 C 86.479 143.483,86.207 143.441,85.542 143.441 C 84.876 143.441,84.604 143.483,84.937 143.533 M128.587 143.535 C 128.980 143.583,129.623 143.583,130.016 143.535 C 130.410 143.486,130.088 143.446,129.302 143.446 C 128.516 143.446,128.194 143.486,128.587 143.535 M222.927 143.531 C 223.201 143.584,223.597 143.582,223.807 143.527 C 224.017 143.472,223.793 143.428,223.310 143.431 C 222.826 143.433,222.654 143.478,222.927 143.531 " stroke="none" fill="#e8a9ac" fill-rule="evenodd"></path><path id="path3" d="M81.089 67.893 C 82.086 67.934,83.719 67.934,84.717 67.893 C 85.715 67.852,84.898 67.819,82.903 67.819 C 80.907 67.819,80.091 67.852,81.089 67.893 M127.378 67.894 C 128.678 67.932,130.805 67.932,132.106 67.894 C 133.406 67.855,132.342 67.823,129.742 67.823 C 127.141 67.823,126.078 67.855,127.378 67.894 M152.666 67.894 C 153.966 67.932,156.094 67.932,157.394 67.894 C 158.694 67.855,157.631 67.823,155.030 67.823 C 152.430 67.823,151.366 67.855,152.666 67.894 M198.626 67.894 C 200.410 67.931,203.329 67.931,205.113 67.894 C 206.897 67.857,205.437 67.827,201.869 67.827 C 198.301 67.827,196.842 67.857,198.626 67.894 M224.684 67.894 C 225.924 67.933,227.952 67.933,229.192 67.894 C 230.432 67.854,229.417 67.822,226.938 67.822 C 224.458 67.822,223.444 67.854,224.684 67.894 M147.392 68.107 C 147.726 68.158,148.221 68.156,148.491 68.104 C 148.762 68.052,148.488 68.011,147.883 68.012 C 147.279 68.014,147.057 68.057,147.392 68.107 M136.723 68.623 L 137.218 69.187 137.218 105.578 C 137.218 134.379,137.161 142.032,136.943 142.276 C 136.710 142.539,136.726 142.541,137.053 142.293 C 137.417 142.018,137.438 140.010,137.438 105.564 L 137.438 69.126 136.833 68.592 L 136.229 68.059 136.723 68.623 M162.507 68.639 C 162.688 68.804,162.979 69.087,163.153 69.269 C 163.398 69.525,163.394 69.478,163.134 69.061 C 162.950 68.765,162.659 68.482,162.488 68.431 C 162.238 68.357,162.241 68.397,162.507 68.639 M294.175 68.985 C 294.449 69.037,294.845 69.035,295.055 68.980 C 295.265 68.925,295.041 68.882,294.557 68.884 C 294.074 68.887,293.902 68.932,294.175 68.985 M300.000 68.981 C 300.212 69.036,300.558 69.036,300.770 68.981 C 300.981 68.925,300.808 68.880,300.385 68.880 C 299.962 68.880,299.788 68.925,300.000 68.981 M122.151 90.489 C 122.151 102.221,122.177 106.988,122.210 101.083 C 122.243 95.178,122.243 85.579,122.210 79.752 C 122.177 73.926,122.151 78.758,122.151 90.489 M289.720 69.489 C 289.159 69.730,289.737 69.730,290.489 69.489 C 290.931 69.347,290.953 69.311,290.599 69.306 C 290.357 69.303,289.962 69.385,289.720 69.489 M219.760 72.347 C 219.760 73.496,219.797 73.966,219.843 73.392 C 219.888 72.817,219.888 71.877,219.843 71.303 C 219.797 70.728,219.760 71.198,219.760 72.347 M234.509 75.646 C 234.509 78.367,234.540 79.480,234.579 78.120 C 234.617 76.759,234.617 74.533,234.579 73.172 C 234.540 71.811,234.509 72.925,234.509 75.646 M321.825 78.285 C 322.298 78.769,322.734 79.164,322.794 79.164 C 322.855 79.164,322.517 78.769,322.045 78.285 C 321.573 77.801,321.137 77.405,321.076 77.405 C 321.016 77.405,321.353 77.801,321.825 78.285 M272.897 78.615 C 272.363 79.159,271.975 79.604,272.036 79.604 C 272.096 79.604,272.583 79.159,273.117 78.615 C 273.651 78.070,274.039 77.625,273.978 77.625 C 273.918 77.625,273.431 78.070,272.897 78.615 M97.856 80.044 C 98.114 80.407,98.375 80.704,98.436 80.704 C 98.496 80.704,98.334 80.407,98.076 80.044 C 97.818 79.681,97.557 79.384,97.496 79.384 C 97.436 79.384,97.598 79.681,97.856 80.044 M323.905 80.319 C 324.444 80.893,324.914 81.363,324.950 81.363 C 325.115 81.363,324.940 81.166,323.969 80.255 L 322.925 79.274 323.905 80.319 M270.906 80.649 L 270.148 81.473 270.973 80.716 C 271.427 80.299,271.798 79.928,271.798 79.891 C 271.798 79.723,271.612 79.881,270.906 80.649 M219.515 111.616 L 219.461 142.199 220.066 142.732 L 220.671 143.266 220.177 142.702 L 219.683 142.139 219.626 111.586 L 219.570 81.034 219.515 111.616 M295.932 84.377 C 296.204 84.430,296.649 84.430,296.921 84.377 C 297.194 84.325,296.971 84.282,296.427 84.282 C 295.882 84.282,295.660 84.325,295.932 84.377 M298.791 84.377 C 299.063 84.430,299.508 84.430,299.780 84.377 C 300.052 84.325,299.830 84.282,299.285 84.282 C 298.741 84.282,298.518 84.325,298.791 84.377 M234.737 98.186 C 234.737 105.201,234.765 108.102,234.799 104.634 C 234.833 101.165,234.833 95.426,234.799 91.879 C 234.765 88.333,234.737 91.171,234.737 98.186 M312.919 91.328 C 312.919 91.366,313.241 91.687,313.634 92.042 L 314.349 92.688 313.703 91.974 C 313.101 91.307,312.919 91.158,312.919 91.328 M91.341 97.739 C 91.273 97.916,91.268 98.188,91.331 98.343 C 91.393 98.499,91.452 98.403,91.461 98.131 C 91.482 97.535,91.629 97.514,92.231 98.021 C 92.688 98.405,92.688 98.405,92.269 97.911 C 91.783 97.336,91.515 97.287,91.341 97.739 M261.302 101.814 C 261.302 102.358,261.345 102.581,261.398 102.309 C 261.450 102.037,261.450 101.592,261.398 101.319 C 261.345 101.047,261.302 101.270,261.302 101.814 M76.183 108.081 C 76.183 111.589,76.213 112.993,76.250 111.202 C 76.287 109.410,76.287 106.540,76.250 104.824 C 76.213 103.108,76.183 104.574,76.183 108.081 M318.248 102.474 C 318.248 102.897,318.293 103.070,318.348 102.859 C 318.404 102.647,318.404 102.301,318.348 102.089 C 318.293 101.877,318.248 102.051,318.248 102.474 M334.085 103.683 C 334.088 104.167,334.133 104.339,334.185 104.066 C 334.238 103.792,334.236 103.396,334.181 103.186 C 334.126 102.976,334.083 103.200,334.085 103.683 M115.008 103.793 C 115.267 104.156,115.527 104.453,115.588 104.453 C 115.648 104.453,115.487 104.156,115.228 103.793 C 114.970 103.430,114.709 103.134,114.648 103.134 C 114.588 103.134,114.750 103.430,115.008 103.793 M261.099 105.333 C 261.099 106.361,261.137 106.781,261.184 106.267 C 261.230 105.753,261.230 104.912,261.184 104.398 C 261.137 103.884,261.099 104.305,261.099 105.333 M261.308 109.291 C 261.308 109.956,261.350 110.228,261.400 109.896 C 261.450 109.563,261.450 109.019,261.400 108.686 C 261.350 108.353,261.308 108.626,261.308 109.291 M334.085 108.961 C 334.088 109.445,334.133 109.617,334.185 109.343 C 334.238 109.070,334.236 108.674,334.181 108.464 C 334.126 108.253,334.083 108.477,334.085 108.961 M318.248 109.511 C 318.248 109.934,318.293 110.107,318.348 109.896 C 318.404 109.684,318.404 109.338,318.348 109.126 C 318.293 108.914,318.248 109.087,318.248 109.511 M276.893 110.500 C 276.889 110.742,276.971 111.138,277.075 111.380 C 277.316 111.940,277.316 111.362,277.075 110.610 C 276.934 110.168,276.898 110.147,276.893 110.500 M186.559 113.469 C 186.559 114.860,186.595 115.429,186.639 114.733 C 186.682 114.038,186.682 112.900,186.639 112.205 C 186.595 111.509,186.559 112.078,186.559 113.469 M120.506 111.339 C 120.506 111.377,120.827 111.698,121.220 112.053 L 121.935 112.699 121.289 111.985 C 120.687 111.318,120.506 111.169,120.506 111.339 M333.617 112.479 C 333.599 112.721,333.533 113.167,333.471 113.469 L 333.358 114.019 333.593 113.479 C 333.723 113.183,333.788 112.737,333.739 112.490 C 333.652 112.051,333.649 112.051,333.617 112.479 M296.372 127.706 C 297.248 127.748,298.683 127.748,299.560 127.706 C 300.437 127.664,299.720 127.630,297.966 127.630 C 296.212 127.630,295.495 127.664,296.372 127.706 M249.753 128.145 C 250.388 128.189,251.427 128.189,252.062 128.145 C 252.697 128.100,252.177 128.064,250.907 128.064 C 249.637 128.064,249.118 128.100,249.753 128.145 M255.690 128.361 C 256.083 128.410,256.726 128.410,257.119 128.361 C 257.512 128.313,257.191 128.273,256.405 128.273 C 255.618 128.273,255.297 128.313,255.690 128.361 M259.125 132.380 C 259.125 133.650,259.161 134.170,259.206 133.535 C 259.250 132.900,259.250 131.861,259.206 131.226 C 259.161 130.591,259.125 131.111,259.125 132.380 M269.819 130.470 C 269.819 130.508,270.140 130.830,270.533 131.185 L 271.248 131.831 270.602 131.116 C 270.000 130.450,269.819 130.300,269.819 130.470 M322.258 133.755 L 320.946 135.129 322.320 133.817 C 323.076 133.095,323.694 132.476,323.694 132.442 C 323.694 132.280,323.477 132.478,322.258 133.755 M273.777 134.428 C 273.777 134.466,274.098 134.788,274.491 135.143 L 275.206 135.789 274.560 135.074 C 273.958 134.408,273.777 134.258,273.777 134.428 M259.125 138.758 C 259.125 140.027,259.161 140.547,259.206 139.912 C 259.250 139.277,259.250 138.238,259.206 137.603 C 259.161 136.968,259.125 137.488,259.125 138.758 M186.328 139.307 C 186.329 140.154,186.369 140.473,186.417 140.017 C 186.464 139.561,186.463 138.868,186.415 138.478 C 186.366 138.087,186.327 138.461,186.328 139.307 M288.070 142.486 C 288.252 142.609,288.590 142.711,288.822 142.712 C 289.384 142.717,289.209 142.591,288.400 142.410 C 287.918 142.302,287.829 142.323,288.070 142.486 M124.993 142.881 C 125.352 143.305,125.604 143.370,126.752 143.334 L 128.092 143.292 126.776 143.211 C 125.962 143.161,125.292 142.989,125.017 142.758 C 124.577 142.388,124.577 142.389,124.993 142.881 M136.344 143.039 C 136.140 143.285,135.410 143.379,133.293 143.431 L 130.511 143.500 133.281 143.548 C 135.805 143.591,136.086 143.556,136.449 143.156 C 136.668 142.914,136.794 142.716,136.730 142.716 C 136.665 142.716,136.492 142.861,136.344 143.039 M87.252 143.317 C 87.769 143.363,88.560 143.363,89.011 143.315 C 89.461 143.268,89.038 143.230,88.070 143.231 C 87.103 143.232,86.734 143.270,87.252 143.317 M221.385 143.311 C 221.658 143.363,222.103 143.363,222.375 143.311 C 222.647 143.258,222.424 143.215,221.880 143.215 C 221.336 143.215,221.113 143.258,221.385 143.311 M295.162 143.320 C 296.583 143.358,298.909 143.358,300.330 143.320 C 301.751 143.281,300.588 143.250,297.746 143.250 C 294.904 143.250,293.741 143.281,295.162 143.320 M79.010 143.539 C 80.074 143.580,81.757 143.580,82.749 143.539 C 83.740 143.498,82.870 143.465,80.814 143.465 C 78.758 143.466,77.946 143.499,79.010 143.539 M176.526 143.540 C 178.007 143.578,180.432 143.578,181.913 143.540 C 183.395 143.502,182.183 143.471,179.219 143.471 C 176.256 143.471,175.044 143.502,176.526 143.540 M232.600 143.540 C 237.347 143.573,245.115 143.573,249.863 143.540 C 254.610 143.507,250.726 143.480,241.231 143.480 C 231.737 143.480,227.853 143.507,232.600 143.540 " stroke="none" fill="#e48c94" fill-rule="evenodd"></path><path id="path4" d="M147.721 67.885 C 147.995 67.938,148.390 67.936,148.601 67.881 C 148.811 67.826,148.587 67.783,148.103 67.785 C 147.620 67.787,147.448 67.832,147.721 67.885 M88.858 68.004 C 88.909 68.035,89.247 68.307,89.610 68.609 L 90.269 69.159 89.736 68.554 C 89.443 68.222,89.105 67.949,88.985 67.949 C 88.865 67.949,88.808 67.974,88.858 68.004 M294.395 68.765 C 294.669 68.817,295.064 68.815,295.275 68.760 C 295.485 68.705,295.261 68.662,294.777 68.665 C 294.294 68.667,294.122 68.712,294.395 68.765 M299.670 68.764 C 299.942 68.817,300.388 68.817,300.660 68.764 C 300.932 68.712,300.709 68.669,300.165 68.669 C 299.621 68.669,299.398 68.712,299.670 68.764 M292.084 68.981 C 292.295 69.036,292.642 69.036,292.853 68.981 C 293.065 68.925,292.892 68.880,292.468 68.880 C 292.045 68.880,291.872 68.925,292.084 68.981 M301.979 68.981 C 302.191 69.036,302.537 69.036,302.749 68.981 C 302.960 68.925,302.787 68.880,302.364 68.880 C 301.941 68.880,301.767 68.925,301.979 68.981 M219.535 72.347 C 219.535 73.255,219.574 73.626,219.621 73.172 C 219.669 72.719,219.669 71.976,219.621 71.523 C 219.574 71.069,219.535 71.440,219.535 72.347 M234.720 77.515 C 234.720 79.087,234.755 79.702,234.798 78.880 C 234.840 78.059,234.840 76.773,234.797 76.022 C 234.754 75.271,234.719 75.943,234.720 77.515 M321.715 77.905 C 321.715 77.939,322.482 78.706,323.419 79.610 L 325.124 81.253 323.480 79.549 C 321.953 77.966,321.715 77.745,321.715 77.905 M76.182 90.269 C 76.182 93.414,76.213 94.670,76.250 93.060 C 76.288 91.450,76.288 88.878,76.250 87.343 C 76.212 85.808,76.181 87.125,76.182 90.269 M318.037 101.594 C 318.037 102.139,318.080 102.361,318.132 102.089 C 318.185 101.817,318.185 101.372,318.132 101.100 C 318.080 100.827,318.037 101.050,318.037 101.594 M334.081 101.594 C 334.081 102.018,334.126 102.191,334.181 101.979 C 334.237 101.767,334.237 101.421,334.181 101.209 C 334.126 100.998,334.081 101.171,334.081 101.594 M91.361 112.479 C 91.361 118.769,91.389 121.310,91.424 118.126 C 91.458 114.943,91.458 109.797,91.424 106.692 C 91.389 103.586,91.361 106.190,91.361 112.479 M334.312 104.123 C 334.314 104.728,334.357 104.949,334.407 104.615 C 334.458 104.281,334.457 103.786,334.404 103.515 C 334.352 103.245,334.311 103.518,334.312 104.123 M276.719 105.992 C 276.719 107.383,276.754 107.952,276.798 107.257 C 276.842 106.561,276.842 105.423,276.798 104.728 C 276.754 104.032,276.719 104.601,276.719 105.992 M75.968 116.548 C 75.968 123.018,75.996 125.665,76.031 122.430 C 76.065 119.195,76.065 113.900,76.031 110.665 C 75.996 107.430,75.968 110.077,75.968 116.548 M334.305 108.741 C 334.307 109.225,334.353 109.397,334.405 109.123 C 334.458 108.850,334.456 108.454,334.401 108.244 C 334.346 108.033,334.303 108.257,334.305 108.741 M318.032 110.500 C 318.035 110.984,318.080 111.156,318.132 110.883 C 318.185 110.609,318.183 110.213,318.128 110.003 C 318.073 109.793,318.030 110.016,318.032 110.500 M121.888 110.940 C 121.890 111.545,121.932 111.766,121.983 111.432 C 122.034 111.098,122.032 110.603,121.980 110.332 C 121.928 110.062,121.886 110.335,121.888 110.940 M334.081 110.830 C 334.081 111.253,334.126 111.427,334.181 111.215 C 334.237 111.003,334.237 110.657,334.181 110.445 C 334.126 110.234,334.081 110.407,334.081 110.830 M171.031 126.391 C 171.063 135.058,171.162 142.223,171.251 142.312 C 171.340 142.401,171.387 135.383,171.355 126.715 C 171.323 118.048,171.224 110.883,171.135 110.794 C 171.046 110.705,170.999 117.724,171.031 126.391 M234.899 122.637 C 234.874 125.321,234.929 127.563,235.019 127.619 C 235.110 127.675,235.159 126.222,235.128 124.388 C 235.024 118.315,234.943 117.696,234.899 122.637 M241.054 127.927 C 242.588 127.964,245.161 127.965,246.771 127.927 C 248.381 127.889,247.125 127.858,243.980 127.858 C 240.836 127.858,239.519 127.889,241.054 127.927 M254.593 128.138 C 254.867 128.191,255.262 128.189,255.473 128.133 C 255.683 128.078,255.459 128.035,254.975 128.038 C 254.491 128.040,254.319 128.085,254.593 128.138 M271.138 132.051 C 271.548 132.474,271.933 132.820,271.994 132.820 C 272.054 132.820,271.768 132.474,271.358 132.051 C 270.948 131.627,270.562 131.281,270.502 131.281 C 270.441 131.281,270.728 131.627,271.138 132.051 M186.560 137.768 C 186.560 139.219,186.596 139.784,186.639 139.024 C 186.682 138.263,186.682 137.076,186.638 136.385 C 186.595 135.694,186.560 136.317,186.560 137.768 M91.334 140.187 C 91.335 141.154,91.374 141.523,91.420 141.006 C 91.467 140.489,91.466 139.697,91.419 139.247 C 91.372 138.796,91.334 139.219,91.334 140.187 M219.949 142.833 C 220.278 143.179,220.587 143.418,220.635 143.364 C 220.683 143.310,220.414 143.027,220.037 142.735 L 219.351 142.204 219.949 142.833 M87.026 143.531 C 87.298 143.583,87.743 143.583,88.015 143.531 C 88.288 143.478,88.065 143.435,87.521 143.435 C 86.976 143.435,86.754 143.478,87.026 143.531 M125.948 143.535 C 126.341 143.583,126.985 143.583,127.378 143.535 C 127.771 143.486,127.449 143.446,126.663 143.446 C 125.877 143.446,125.555 143.486,125.948 143.535 M296.262 143.539 C 297.078 143.581,298.414 143.581,299.230 143.539 C 300.047 143.496,299.379 143.462,297.746 143.462 C 296.113 143.462,295.445 143.496,296.262 143.539 " stroke="none" fill="#ecc4c4" fill-rule="evenodd"></path></g></svg>