<svg width="60" height="60" viewBox="0 0 60 60" fill="none" xmlns="http://www.w3.org/2000/svg">
<path d="M48.385 11.2127C50.9303 11.2127 52.9937 9.1493 52.9937 6.60401C52.9937 4.05872 50.9303 1.99536 48.385 1.99536C45.8397 1.99536 43.7764 4.05872 43.7764 6.60401C43.7764 9.1493 45.8397 11.2127 48.385 11.2127Z" fill="#FFB082"/>
<path d="M42.4413 39.7694V55.3233C42.4413 56.797 43.636 57.9919 45.1099 57.9919C46.5837 57.9919 47.7785 56.7971 47.7785 55.3233V39.7694H42.4413Z" fill="#25BBCC"/>
<path d="M52.8678 56.2396V39.7694H48.9308V55.3233C48.9308 56.797 50.1255 57.9919 51.5994 57.9919C52.1737 57.9919 52.7042 57.8087 53.1395 57.5001C52.9654 57.1152 52.8678 56.6887 52.8678 56.2396Z" fill="#25BBCC"/>
<path d="M16.2529 22.3081C18.8545 22.3081 20.9635 20.1991 20.9635 17.5975C20.9635 14.9959 18.8545 12.8869 16.2529 12.8869C13.6513 12.8869 11.5423 14.9959 11.5423 17.5975C11.5423 20.1991 13.6513 22.3081 16.2529 22.3081Z" fill="#FFB082"/>
<path d="M28.7573 29.9595L20.6338 28.9747L15.3979 25.4947L18.5246 26.5213C18.0829 24.999 16.694 23.9544 15.1177 23.9431L11.83 23.9196C9.8425 23.9053 8.22484 25.5171 8.23034 27.5034L8.26351 39.6256C8.26609 40.5764 8.64753 41.4869 9.32324 42.1559C9.79996 42.6277 10.3956 42.9511 11.0389 43.0987H6.54647L3.50052 27.6033C3.31243 26.6457 2.38384 26.0226 1.42629 26.2105C0.468985 26.3987 -0.15469 27.3274 0.0335143 28.2847L3.35966 45.2062C3.52255 46.0347 4.249 46.6321 5.09334 46.6321H9.9059V52.7518L4.48666 55.7195C3.93634 56.0209 3.6831 56.6993 3.94818 57.2679C4.23857 57.891 4.98928 58.13 5.58225 57.8052L11.0839 54.7925L16.5856 57.8052C17.1803 58.1309 17.9313 57.8894 18.2207 57.2659C18.4845 56.6976 18.2312 56.0206 17.6817 55.7197L12.2618 52.7517V46.632H17.408C18.4006 46.632 19.2478 45.8197 19.2269 44.8274C19.2147 44.252 18.9266 43.7456 18.4904 43.4319L20.1339 43.8151V55.3673C20.1339 56.756 21.2138 57.9389 22.6018 57.9883C24.0589 58.0401 25.2566 56.8744 25.2566 55.4287V41.7823C25.2565 40.5917 24.4362 39.5582 23.2767 39.288L18.4991 38.1742L18.5591 34.3654L13.6699 29.4717L18.6929 32.8102C18.9703 32.9945 19.2869 33.1115 19.6175 33.1514C20.3667 33.2422 27.4786 34.1043 28.2439 34.1971C29.4063 34.3375 30.4774 33.5074 30.6196 32.3351C30.7611 31.1648 29.9275 30.1014 28.7573 29.9595Z" fill="#FF754F"/>
<path d="M58.3904 35.243H26.8426C25.9536 35.243 25.2329 35.9637 25.2329 36.8527C25.2329 37.7417 25.9536 38.4624 26.8426 38.4624H27.6254C27.6254 39.0999 27.6254 55.5839 27.6254 56.2397C27.6254 57.2144 28.4155 58.0045 29.3903 58.0045H29.3973C30.372 58.0045 31.1621 57.2144 31.1621 56.2397C31.1621 55.5837 31.1621 39.0993 31.1621 38.4624H54.1964L54.1746 56.2397C54.1746 57.2143 54.9647 58.0044 55.9394 58.0044H55.9465C56.9211 58.0044 57.7112 57.2143 57.7112 56.2397C57.7112 54.437 57.7112 40.6961 57.7112 38.4624H58.3901C59.2792 38.4624 59.9998 37.7417 59.9998 36.8527C59.9998 35.9637 59.2794 35.243 58.3904 35.243Z" fill="#A89B80"/>
<path d="M38.0855 31.4713H33.5544C32.9039 31.4713 32.3766 31.9985 32.3766 32.649C32.3766 33.2995 32.9039 33.8268 33.5544 33.8268H38.0855C38.736 33.8268 39.2634 33.2995 39.2634 32.649C39.2634 31.9985 38.736 31.4713 38.0855 31.4713Z" fill="#83D0FB"/>
<path d="M59.5977 17.9178C59.5832 15.0305 57.2224 12.6816 54.3351 12.6816H52.0558C51.7645 13.4428 49.6115 19.0673 49.2992 19.8836L49.9493 16.8219C49.9948 16.6068 49.9617 16.3825 49.8559 16.1901L48.9632 14.5668L49.7567 13.1235C49.8748 12.9085 49.7191 12.6448 49.4736 12.6448H47.2957C47.0505 12.6448 46.8943 12.9084 47.0125 13.1235L47.806 14.5668L46.9101 16.1962C46.7009 16.5767 46.7621 16.7591 47.3826 19.8838C46.8321 18.4718 45.2532 14.2174 44.6545 12.6817H42.3966C39.576 12.6817 37.2579 14.9233 37.1389 17.7188L36.0706 24.2259C35.9278 25.095 36.3116 25.9664 37.0487 26.448L42.4403 29.9695V33.9361C43.8799 33.9361 52.8533 33.9361 54.2649 33.9361C54.2649 33.9361 54.2218 31.2786 54.2195 17.9524C54.2195 17.6976 54.4242 17.4902 54.6787 17.4869C54.9333 17.4836 55.1436 17.6855 55.1502 17.9403L55.2306 33.9361L59.6783 33.9461L59.5977 17.9178ZM42.4402 24.6571L40.694 23.5166C41.3318 19.5754 41.5339 18.1837 41.5815 17.9402C41.6243 17.7211 41.8266 17.5703 42.0488 17.592C42.271 17.6137 42.4401 17.8006 42.4401 18.0239V24.6571H42.4402Z" fill="#25BBCC"/>
</svg>
