<svg xmlns="http://www.w3.org/2000/svg" width="700" height="525" viewBox="0 0 1310 720" version="1.1"><path d="M 252.112 223.750 L 250.003 225.500 249.366 345 L 248.729 464.500 250.980 467.304 L 253.230 470.108 274.582 469.804 C 293.526 469.534, 296.134 469.298, 297.716 467.709 C 299.402 466.015, 299.480 461.891, 299.131 392.459 C 298.875 341.409, 299.084 319, 299.816 319 C 300.396 319, 302.051 320.688, 303.493 322.750 C 316.110 340.787, 346.463 382.715, 356.605 396.113 C 360.513 401.276, 368.923 412.700, 375.294 421.500 C 381.666 430.300, 389.020 440.425, 391.637 444 C 394.254 447.575, 397.769 452.451, 399.448 454.835 C 401.126 457.219, 404.326 461.494, 406.559 464.335 L 410.618 469.500 428.218 469.773 L 445.819 470.045 447.910 467.388 L 450 464.730 450 345.404 L 450 226.078 447.811 224.039 C 445.756 222.124, 444.372 222, 424.986 222 C 404.707 222, 404.311 222.040, 402.174 224.314 L 400 226.629 400 297.148 C 400 335.933, 399.716 367.951, 399.368 368.298 C 398.491 369.176, 393.990 363.298, 373.490 334.500 C 363.702 320.750, 345.075 294.973, 332.097 277.218 C 319.119 259.462, 305.320 240.447, 301.434 234.962 C 297.548 229.477, 293.498 224.331, 292.434 223.527 C 290.906 222.370, 286.695 222.057, 272.361 222.032 C 256.526 222.004, 253.954 222.222, 252.112 223.750 M 478.750 223.080 C 477.783 223.643, 477 225.280, 477 226.738 C 477 229.509, 477.197 229.861, 487.257 245 C 490.729 250.225, 495.935 258.550, 498.825 263.500 C 501.716 268.450, 508.110 279.025, 513.033 287 C 517.957 294.975, 523.822 304.559, 526.065 308.298 C 528.309 312.037, 537.086 325.987, 545.570 339.298 L 560.996 363.500 560.998 414.576 L 561 465.651 563.314 467.826 C 565.544 469.920, 566.427 470, 587.279 470 C 607.661 470, 608.990 469.887, 609.965 468.066 C 610.640 466.803, 611 448.014, 611 413.970 C 611 365.059, 611.114 361.643, 612.830 359.154 C 613.836 357.694, 616.470 353.125, 618.682 349 C 626.333 334.732, 637.453 316.255, 643.959 307 C 645.699 304.525, 648.896 299.350, 651.063 295.500 C 653.231 291.650, 657.765 284.225, 661.139 279 C 664.513 273.775, 668.869 266.800, 670.818 263.500 C 672.767 260.200, 678.555 251.074, 683.681 243.219 C 688.806 235.365, 693 228.122, 693 227.124 C 693 226.126, 692.177 224.565, 691.171 223.655 C 689.573 222.209, 686.219 222, 664.586 222 L 639.829 222 636.773 225.250 C 635.092 227.037, 630.576 233.900, 626.736 240.500 C 622.896 247.100, 614.015 262.175, 607.001 274 C 599.986 285.825, 592.372 298.762, 590.079 302.750 C 587.787 306.738, 585.533 310, 585.071 310 C 584.189 310, 581.801 306.128, 567.493 281.500 C 562.699 273.250, 554.481 259.525, 549.230 251 C 543.979 242.475, 538.589 233.475, 537.253 231 C 532.236 221.710, 533.256 221.996, 505.194 222.030 C 490.289 222.049, 479.806 222.465, 478.750 223.080 M 721.027 223.973 C 719.085 225.915, 719.054 227.833, 719.049 345.954 L 719.044 465.963 721.210 467.981 C 723.335 469.961, 724.571 470, 784.632 470 L 845.887 470 847.443 467.777 C 848.733 465.936, 849 461.932, 849 444.432 C 849 424.233, 848.908 423.227, 846.896 421.405 C 844.928 419.623, 842.369 419.468, 807.146 419 L 769.500 418.500 769 321.669 C 768.513 227.274, 768.451 224.803, 766.559 223.419 C 765.030 222.301, 760.201 222, 743.809 222 C 724.429 222, 722.865 222.135, 721.027 223.973 M 951 227.013 C 932.062 231.069, 917.908 237.929, 900.487 251.498 C 881.817 266.038, 866.031 289.675, 859.551 312.792 C 855.711 326.488, 854.653 336.522, 855.310 353 C 856.323 378.392, 863.327 398.998, 878.085 420 C 883.765 428.083, 897.657 442.300, 904.362 446.892 C 911.901 452.054, 927.403 460.587, 934 463.206 C 947.849 468.703, 952.976 469.500, 974.500 469.500 C 992.171 469.500, 995.432 469.239, 1002.500 467.259 C 1024.057 461.220, 1041.362 451.857, 1055.134 438.782 C 1063.551 430.790, 1077.601 412.083, 1082.227 402.708 C 1087.331 392.364, 1092.632 374.772, 1094.058 363.448 C 1095.825 349.411, 1094.768 330.100, 1091.544 317.500 C 1088.429 305.328, 1087.896 303.885, 1082.262 292.369 C 1071.875 271.139, 1049.965 248.554, 1030.001 238.500 C 1020.697 233.815, 1004.036 228.265, 993.943 226.489 C 982.341 224.447, 961.810 224.697, 951 227.013 M 959.845 278.028 C 944.803 281.727, 930.159 290.732, 921.758 301.448 C 915.287 309.702, 909.039 322.596, 907.391 331.097 C 906.602 335.169, 905.946 342.617, 905.933 347.648 C 905.847 380.882, 927.901 408.871, 960.168 416.478 C 968.549 418.453, 983.708 418.409, 991.936 416.385 C 1012.153 411.412, 1032.158 392.158, 1040.167 369.965 C 1042.260 364.166, 1042.498 361.799, 1042.481 347 C 1042.464 331.665, 1042.275 329.982, 1039.802 323.165 C 1035.806 312.149, 1031.395 305.402, 1022 295.934 C 1015.095 288.976, 1011.905 286.599, 1005 283.268 C 990.176 276.118, 974.845 274.338, 959.845 278.028" stroke="none" fill="#d32d38" fill-rule="evenodd"/><path d="M 0 360.001 L 0 720.002 655.250 719.751 L 1310.500 719.500 1310.751 359.750 L 1311.003 0 655.501 0 L 0 0 0 360.001 M 0.495 360.500 C 0.495 558.500, 0.609 639.649, 0.750 540.831 C 0.890 442.013, 0.890 280.013, 0.750 180.831 C 0.609 81.649, 0.495 162.500, 0.495 360.500 M 252.112 223.750 L 250.003 225.500 249.366 345 L 248.729 464.500 250.980 467.304 L 253.230 470.108 274.582 469.804 C 293.526 469.534, 296.134 469.298, 297.716 467.709 C 299.402 466.015, 299.480 461.891, 299.131 392.459 C 298.875 341.409, 299.084 319, 299.816 319 C 300.396 319, 302.051 320.688, 303.493 322.750 C 316.110 340.787, 346.463 382.715, 356.605 396.113 C 360.513 401.276, 368.923 412.700, 375.294 421.500 C 381.666 430.300, 389.020 440.425, 391.637 444 C 394.254 447.575, 397.769 452.451, 399.448 454.835 C 401.126 457.219, 404.326 461.494, 406.559 464.335 L 410.618 469.500 428.218 469.773 L 445.819 470.045 447.910 467.388 L 450 464.730 450 345.404 L 450 226.078 447.811 224.039 C 445.756 222.124, 444.372 222, 424.986 222 C 404.707 222, 404.311 222.040, 402.174 224.314 L 400 226.629 400 297.148 C 400 335.933, 399.716 367.951, 399.368 368.298 C 398.491 369.176, 393.990 363.298, 373.490 334.500 C 363.702 320.750, 345.075 294.973, 332.097 277.218 C 319.119 259.462, 305.320 240.447, 301.434 234.962 C 297.548 229.477, 293.498 224.331, 292.434 223.527 C 290.906 222.370, 286.695 222.057, 272.361 222.032 C 256.526 222.004, 253.954 222.222, 252.112 223.750 M 478.750 223.080 C 477.783 223.643, 477 225.280, 477 226.738 C 477 229.509, 477.197 229.861, 487.257 245 C 490.729 250.225, 495.935 258.550, 498.825 263.500 C 501.716 268.450, 508.110 279.025, 513.033 287 C 517.957 294.975, 523.822 304.559, 526.065 308.298 C 528.309 312.037, 537.086 325.987, 545.570 339.298 L 560.996 363.500 560.998 414.576 L 561 465.651 563.314 467.826 C 565.544 469.920, 566.427 470, 587.279 470 C 607.661 470, 608.990 469.887, 609.965 468.066 C 610.640 466.803, 611 448.014, 611 413.970 C 611 365.059, 611.114 361.643, 612.830 359.154 C 613.836 357.694, 616.470 353.125, 618.682 349 C 626.333 334.732, 637.453 316.255, 643.959 307 C 645.699 304.525, 648.896 299.350, 651.063 295.500 C 653.231 291.650, 657.765 284.225, 661.139 279 C 664.513 273.775, 668.869 266.800, 670.818 263.500 C 672.767 260.200, 678.555 251.074, 683.681 243.219 C 688.806 235.365, 693 228.122, 693 227.124 C 693 226.126, 692.177 224.565, 691.171 223.655 C 689.573 222.209, 686.219 222, 664.586 222 L 639.829 222 636.773 225.250 C 635.092 227.037, 630.576 233.900, 626.736 240.500 C 622.896 247.100, 614.015 262.175, 607.001 274 C 599.986 285.825, 592.372 298.762, 590.079 302.750 C 587.787 306.738, 585.533 310, 585.071 310 C 584.189 310, 581.801 306.128, 567.493 281.500 C 562.699 273.250, 554.481 259.525, 549.230 251 C 543.979 242.475, 538.589 233.475, 537.253 231 C 532.236 221.710, 533.256 221.996, 505.194 222.030 C 490.289 222.049, 479.806 222.465, 478.750 223.080 M 721.027 223.973 C 719.085 225.915, 719.054 227.833, 719.049 345.954 L 719.044 465.963 721.210 467.981 C 723.335 469.961, 724.571 470, 784.632 470 L 845.887 470 847.443 467.777 C 848.733 465.936, 849 461.932, 849 444.432 C 849 424.233, 848.908 423.227, 846.896 421.405 C 844.928 419.623, 842.369 419.468, 807.146 419 L 769.500 418.500 769 321.669 C 768.513 227.274, 768.451 224.803, 766.559 223.419 C 765.030 222.301, 760.201 222, 743.809 222 C 724.429 222, 722.865 222.135, 721.027 223.973 M 951 227.013 C 932.062 231.069, 917.908 237.929, 900.487 251.498 C 881.817 266.038, 866.031 289.675, 859.551 312.792 C 855.711 326.488, 854.653 336.522, 855.310 353 C 856.323 378.392, 863.327 398.998, 878.085 420 C 883.765 428.083, 897.657 442.300, 904.362 446.892 C 911.901 452.054, 927.403 460.587, 934 463.206 C 947.849 468.703, 952.976 469.500, 974.500 469.500 C 992.171 469.500, 995.432 469.239, 1002.500 467.259 C 1024.057 461.220, 1041.362 451.857, 1055.134 438.782 C 1063.551 430.790, 1077.601 412.083, 1082.227 402.708 C 1087.331 392.364, 1092.632 374.772, 1094.058 363.448 C 1095.825 349.411, 1094.768 330.100, 1091.544 317.500 C 1088.429 305.328, 1087.896 303.885, 1082.262 292.369 C 1071.875 271.139, 1049.965 248.554, 1030.001 238.500 C 1020.697 233.815, 1004.036 228.265, 993.943 226.489 C 982.341 224.447, 961.810 224.697, 951 227.013 M 959.845 278.028 C 944.803 281.727, 930.159 290.732, 921.758 301.448 C 915.287 309.702, 909.039 322.596, 907.391 331.097 C 906.602 335.169, 905.946 342.617, 905.933 347.648 C 905.847 380.882, 927.901 408.871, 960.168 416.478 C 968.549 418.453, 983.708 418.409, 991.936 416.385 C 1012.153 411.412, 1032.158 392.158, 1040.167 369.965 C 1042.260 364.166, 1042.498 361.799, 1042.481 347 C 1042.464 331.665, 1042.275 329.982, 1039.802 323.165 C 1035.806 312.149, 1031.395 305.402, 1022 295.934 C 1015.095 288.976, 1011.905 286.599, 1005 283.268 C 990.176 276.118, 974.845 274.338, 959.845 278.028" stroke="none" fill="#f7faf7" fill-rule="evenodd"/></svg>