<svg width="60" height="60" viewBox="0 0 60 60" fill="none" xmlns="http://www.w3.org/2000/svg">
<g clip-path="url(#clip0_67_60)">
<path d="M44.5925 27.0212C45.5113 27.0212 46.2621 26.2803 46.2621 25.3516V9.99832H13.7279V25.3516C13.7279 26.2704 14.4688 27.0212 15.3976 27.0212H44.5925Z" fill="#56ACE0"/>
<path d="M36.0465 23.6917H18.7173C17.7985 23.6917 17.0477 22.9508 17.0477 22.0221C17.0477 21.1033 17.7886 20.3524 18.7173 20.3524H36.0268C36.9456 20.3524 37.6964 21.0933 37.6964 22.0221C37.7161 22.9409 36.9653 23.6917 36.0465 23.6917Z" fill="#194F82"/>
<path d="M41.263 16.6673H18.7173C17.7985 16.6673 17.0477 15.9264 17.0477 14.9976C17.0477 14.0689 17.7886 13.328 18.7173 13.328H41.2532C42.172 13.328 42.9228 14.0689 42.9228 14.9976C42.9228 15.9262 42.1917 16.6673 41.263 16.6673Z" fill="#194F82"/>
<path d="M11.1592 3.33945C10.2404 3.33945 9.48956 4.08036 9.48956 5.00909C9.48956 5.93783 10.2305 6.67874 11.1592 6.67874H48.8309C49.7497 6.67874 50.5005 5.93783 50.5005 5.00909C50.5005 4.08036 49.7596 3.33945 48.8309 3.33945C48.8408 3.33945 11.1592 3.33945 11.1592 3.33945Z" fill="#FFC10D"/>
<path d="M31.6696 38.1755C31.6696 37.2567 30.9287 36.5059 30 36.5059C29.0713 36.5059 28.3304 37.2468 28.3304 38.1755C28.3304 39.1043 29.0713 39.8452 30 39.8452C30.9089 39.8452 31.6696 39.0943 31.6696 38.1755Z" fill="white"/>
<path d="M10.6653 35.8538C9.20301 35.8538 7.99765 37.0492 7.99765 38.5214C7.99765 39.9836 9.19307 41.189 10.6653 41.189C12.1375 41.189 13.3329 39.9936 13.3329 38.5214C13.3329 37.0492 12.1472 35.8538 10.6653 35.8538Z" fill="#FFC10D"/>
<path d="M4.2928 51.1774C3.69998 51.4836 3.33441 52.0665 3.33441 52.689V56.6607H18.0158V52.689C18.0158 52.0468 17.6503 51.4737 17.0575 51.1774C13.1253 49.1717 8.21513 49.1717 4.2928 51.1774Z" fill="white"/>
<path d="M51.9924 38.5115C51.9924 37.0492 50.797 35.8438 49.3248 35.8438C47.8626 35.8438 46.6572 37.0393 46.6572 38.5115C46.6572 39.9737 47.8526 41.1791 49.3248 41.1791C50.7871 41.1789 51.9924 39.9835 51.9924 38.5115Z" fill="white"/>
<path d="M41.9842 56.6606H56.6656V52.689C56.6656 52.0468 56.3 51.4737 55.7072 51.1774C51.7751 49.1718 46.8747 49.1718 42.9425 51.1774C42.3497 51.4837 41.9842 52.0665 41.9842 52.689V56.6606Z" fill="#FFC10D"/>
<path d="M31.6697 33.4727V30.3507H44.6023C47.3587 30.3507 49.6014 28.108 49.6014 25.3516V9.93902C52.0022 9.57346 53.83 7.5086 53.83 4.99916C53.83 2.24275 51.5874 0 48.8309 0H11.1494C8.41258 0 6.16998 2.24275 6.16998 4.99916C6.16998 7.49882 8.00759 9.57346 10.3986 9.93902V25.3514C10.3986 28.1078 12.6413 30.3506 15.3977 30.3506H28.3206V33.4628C26.3841 34.1445 24.9911 36.0019 24.9911 38.1754C24.9911 40.9318 27.2338 43.1745 29.9902 43.1745C32.7466 43.1745 34.9894 40.9318 34.9894 38.1754C34.9992 36.0118 33.6061 34.1643 31.6697 33.4727ZM11.1592 6.66881C10.2404 6.66881 9.48956 5.9279 9.48956 4.99916C9.48956 4.07042 10.2305 3.32951 11.1592 3.32951H48.8309C49.7497 3.32951 50.5005 4.07042 50.5005 4.99916C50.5005 5.9279 49.7596 6.66881 48.8309 6.66881H11.1592ZM15.4075 27.0312C14.4887 27.0312 13.7379 26.2903 13.7379 25.3615V10.0083H46.2721V25.3615C46.2721 26.2803 45.5312 27.0312 44.6024 27.0312H15.4075ZM30 39.8551C29.0812 39.8551 28.3304 39.1142 28.3304 38.1855C28.3304 37.2567 29.0812 36.5256 30 36.5256C30.9188 36.5256 31.6697 37.2665 31.6697 38.1953C31.6697 39.124 30.9188 39.8551 30 39.8551Z" fill="#194F82"/>
<path d="M16.6622 38.5214C16.6622 35.2116 13.9651 32.5244 10.6652 32.5244C7.36538 32.5244 4.66827 35.2215 4.66827 38.5214C4.66827 41.8213 7.36538 44.5184 10.6652 44.5184C13.9651 44.5184 16.6622 41.831 16.6622 38.5214ZM8.00757 38.5214C8.00757 37.0591 9.20299 35.8538 10.6752 35.8538C12.1474 35.8538 13.3428 37.0492 13.3428 38.5214C13.3428 39.9836 12.1474 41.189 10.6752 41.189C9.20299 41.189 8.00757 39.9835 8.00757 38.5214Z" fill="#194F82"/>
<path d="M18.5691 48.2134C13.7082 45.7237 7.63207 45.7237 2.77122 48.2134C1.07193 49.0829 0.00488281 50.8118 0.00488281 52.6989V58.3303C0.00488281 59.2492 0.745793 60 1.67453 60H19.6855C20.6043 60 21.3551 59.2591 21.3551 58.3303V52.6989C21.3453 50.8118 20.2783 49.0927 18.5691 48.2134ZM18.0158 56.6705H3.3344V52.6988C3.3344 52.0566 3.69996 51.4835 4.29278 51.1872C8.22489 49.1816 13.1253 49.1816 17.0574 51.1872C17.6503 51.4934 18.0158 52.0763 18.0158 52.6988V56.6705Z" fill="#194F82"/>
<path d="M49.3248 32.5243C46.015 32.5243 43.3278 35.2214 43.3278 38.5212C43.3278 41.8211 46.0249 44.5182 49.3248 44.5182C52.6247 44.5182 55.3218 41.8211 55.3218 38.5212C55.3218 35.2214 52.6247 32.5243 49.3248 32.5243ZM49.3248 41.1789C47.8625 41.1789 46.6572 39.9835 46.6572 38.5113C46.6572 37.049 47.8526 35.8437 49.3248 35.8437C50.7871 35.8437 51.9924 37.0391 51.9924 38.5113C51.9924 39.9835 50.797 41.1789 49.3248 41.1789Z" fill="#194F82"/>
<path d="M57.2188 48.2134C52.358 45.7237 46.2818 45.7237 41.421 48.2134C39.7118 49.0829 38.6447 50.8019 38.6447 52.689V58.3204C38.6447 59.2392 39.3856 59.9901 40.3144 59.9901H58.3253C59.2441 59.9901 59.995 59.2492 59.995 58.3204V52.689C59.9951 50.8118 58.9378 49.0927 57.2188 48.2134ZM56.6656 56.6705H41.9842V52.6988C41.9842 52.0566 42.3497 51.4835 42.9425 51.1872C46.8747 49.1816 51.7751 49.1816 55.7072 51.1872C56.3 51.4934 56.6656 52.0763 56.6656 52.6988V56.6705Z" fill="#194F82"/>
</g>
<defs>
<clipPath id="clip0_67_60">
<rect width="60" height="60" fill="white"/>
</clipPath>
</defs>
</svg>
