<svg width="60" height="60" viewBox="0 0 60 60" fill="none" xmlns="http://www.w3.org/2000/svg">
<path d="M58.2283 28.9182V30.969C58.2283 31.7503 57.8744 32.5314 57.1657 33.1451C48.9538 40.2596 40.7389 47.3713 32.5278 54.4861C31.8354 55.086 31.0152 55.3944 30.0401 55.3944V53.3436C31.0152 53.3436 31.8354 53.0351 32.5278 52.4353C40.739 45.3206 48.9537 38.2086 57.1657 31.0944C57.8744 30.4806 58.2283 29.6996 58.2283 28.9182Z" fill="#8FC4D7"/>
<path d="M1.77182 30.959V30.7539V30.6514V30.4463V30.2412V30.1387V29.9336V29.7285V29.626V29.4209V29.2159V29.1133V28.9082C1.77182 29.77 2.16446 30.6258 2.88727 31.2531C10.9995 38.2881 19.1206 45.3154 27.2366 52.348C27.9984 53.0078 28.9206 53.3128 30.0404 53.3438V55.3945C28.9208 55.3636 27.9984 55.0586 27.2366 54.3988C19.1206 47.3661 10.9995 40.3389 2.88727 33.3039C2.1644 32.6766 1.77182 31.8208 1.77182 30.959Z" fill="#8FC4D7"/>
<path d="M29.9289 4.48834C30.8818 4.48834 31.8359 4.80252 32.5624 5.43153C40.7626 12.5324 48.9628 19.6332 57.1612 26.7354C58.5816 27.9656 58.5847 29.8651 57.1658 31.0946C48.9539 38.2089 40.739 45.3209 32.5278 52.4354C31.8355 53.0354 31.0153 53.3438 30.0403 53.3438C28.9206 53.3128 27.9983 53.0078 27.2364 52.348C19.1206 45.3154 10.9995 38.2881 2.88721 31.2531C1.73989 30.2577 1.42471 28.6861 2.19024 27.4298C2.41987 27.0526 2.69819 26.7367 3.0378 26.4425C11.1301 19.4375 19.2202 12.4308 27.311 5.42385C28.0314 4.80041 28.9796 4.48834 29.9289 4.48834Z" fill="#A9DCF0"/>
<path d="M27.4131 18.5535H27.3959V18.4385V18.3165V18.19V18.061V17.9321V17.8056V17.6839V17.5692H27.4131C32.3827 17.5828 36.5354 20.8426 37.1357 25.029V26.0134C36.5354 21.8269 32.3827 18.5671 27.4131 18.5535Z" fill="#6BB1CB"/>
<path d="M37.21 26.0886V27.0729C37.2188 22.3901 32.795 18.5682 27.4131 18.5536C26.8882 18.555 26.3729 18.5913 25.8704 18.6598V17.6754C26.3817 17.6058 26.8971 17.5703 27.4131 17.5692C32.795 17.5838 37.2188 21.4058 37.21 26.0886Z" fill="#6BB1CB"/>
<path d="M27.3959 18.5535C22.2885 18.5743 18.1065 21.9001 17.572 26.1255V26.0024V25.8793V25.756V25.6329V25.5098V25.3868V25.264V25.1411C18.1065 20.9157 22.2885 17.5898 27.3959 17.5691V18.5535Z" fill="#6BB1CB"/>
<path d="M37.21 26.0886V27.0729C37.2188 22.3901 32.795 18.5682 27.4131 18.5536C26.8882 18.555 26.3729 18.5913 25.8704 18.6598V17.6754C26.3817 17.6058 26.8971 17.5703 27.4131 17.5692C32.795 17.5838 37.2188 21.4058 37.21 26.0886ZM25.8704 17.6754V18.6598C25.054 18.7712 24.2712 18.9679 23.5344 19.2387V18.2543C24.2712 17.9835 25.054 17.7868 25.8704 17.6754ZM23.5344 18.2542V19.2386C22.8121 19.5041 22.1343 19.8407 21.5126 20.238V19.2536C22.1342 18.8563 22.8122 18.5197 23.5344 18.2542ZM21.5126 19.2536V20.238C20.7056 20.7538 19.9933 21.3718 19.402 22.0689V21.0845C19.9934 20.3874 20.7056 19.7694 21.5126 19.2536Z" fill="#6BB1CB"/>
<path d="M19.4021 21.0845V22.0689C18.3126 23.3535 17.6337 24.9071 17.5286 26.5852V25.6008C17.6337 23.9228 18.3125 22.3692 19.4021 21.0845Z" fill="#6BB1CB"/>
<path d="M17.572 26.1256C17.5338 26.4277 17.5145 26.732 17.5143 27.0366V26.0522C17.5145 25.7446 17.5341 25.4406 17.572 25.1412V26.1256Z" fill="#6BB1CB"/>
<path d="M19.4021 21.0845V22.0689C18.3126 23.3535 17.6337 24.9071 17.5286 26.5852V25.6008C17.6337 23.9228 18.3125 22.3692 19.4021 21.0845Z" fill="#6BB1CB"/>
<path d="M17.5286 25.6008V26.5851C17.5192 26.7354 17.5144 26.886 17.5144 27.0366V26.0522C17.5144 25.9008 17.5192 25.7504 17.5286 25.6008Z" fill="#6BB1CB"/>
<path d="M37.21 27.0729C37.2107 26.7184 37.1859 26.3643 37.1357 26.0134V25.8902V25.8286V25.7055V25.5824V25.4594V25.3363V25.2133V25.0904V25.029C37.1858 25.3799 37.2107 25.734 37.21 26.0886V27.0729Z" fill="#6BB1CB"/>
<path d="M37.21 26.0886V27.0729C37.2188 22.3901 32.795 18.5682 27.4131 18.5536C26.8882 18.555 26.3729 18.5913 25.8704 18.6598V17.6754C26.3817 17.6058 26.8971 17.5703 27.4131 17.5692C32.795 17.5838 37.2188 21.4058 37.21 26.0886Z" fill="#6BB1CB"/>
<path d="M17.5144 27.0463V26.0619L17.5144 26.107V27.0914L17.5144 27.0463Z" fill="#6BB1CB"/>
<path d="M17.5144 26.1069V27.0913L17.5144 27.0463V26.0619L17.5144 26.1069Z" fill="#6BB1CB"/>
<path d="M38.8247 26.1819V27.1663C38.8247 29.3593 37.991 31.3872 36.3365 33.2401C36.2354 33.3536 36.1327 33.4666 35.9838 33.6318V32.6474C36.1325 32.4821 36.2354 32.3691 36.3365 32.2556C37.991 30.4028 38.8247 28.375 38.8247 26.1819Z" fill="#6BB1CB"/>
<path d="M38.8247 26.1819V27.1663C38.8247 27.3376 38.8195 27.508 38.8094 27.6773V26.6929C38.8196 26.5236 38.8247 26.3532 38.8247 26.1819Z" fill="#6BB1CB"/>
<path d="M38.8096 26.6929V27.6773C38.6951 29.5825 37.9369 31.3595 36.5443 33.0015V32.0171C37.9369 30.375 38.6951 28.5981 38.8096 26.6929ZM36.5442 32.0172V33.0016C36.476 33.082 36.4068 33.1615 36.3366 33.2401C36.2355 33.3537 36.1327 33.4666 35.9839 33.6319V32.6475C36.1325 32.4823 36.2354 32.3692 36.3366 32.2557C36.4067 32.1771 36.4759 32.0976 36.5442 32.0172Z" fill="#6BB1CB"/>
<path d="M27.3726 34.6316V35.616C21.9287 35.6013 17.5457 31.7926 17.5145 27.0914V26.107C17.5457 30.8082 21.9286 34.6169 27.3726 34.6316Z" fill="#6BB1CB"/>
<path d="M27.3726 34.6316V35.616C21.9287 35.6013 17.5457 31.7926 17.5145 27.0914V26.107C17.5457 30.8082 21.9286 34.6169 27.3726 34.6316Z" fill="#6BB1CB"/>
<path d="M27.3513 17.5691C32.795 17.5839 37.2189 21.4057 37.2099 26.0886C37.2005 30.8146 32.8269 34.6004 27.3725 34.6316C21.9286 34.6169 17.5456 30.8082 17.5144 26.107C17.5143 26.0887 17.5142 26.0705 17.5143 26.0523C17.5184 21.3988 21.9359 17.5833 27.3513 17.5691Z" fill="#CCE8F2"/>
<path d="M37.21 26.0886V27.0729C37.2006 31.799 32.827 35.5847 27.3726 35.616V34.6316C32.827 34.6004 37.2006 30.8146 37.21 26.0886Z" fill="#6BB1CB"/>
<path d="M37.21 26.0886V27.0729C37.2097 27.2273 37.2049 27.3806 37.1953 27.5328V26.5485C37.2048 26.3963 37.2097 26.2429 37.21 26.0886ZM37.1953 26.5485V27.5328C37.088 29.252 36.4017 30.8309 35.301 32.1282V31.1438C36.4017 29.8465 37.088 28.2677 37.1953 26.5485ZM35.301 31.1438V32.1282C34.713 32.8213 34.0066 33.4341 33.2071 33.9449V32.9605C34.0066 32.4498 34.713 31.837 35.301 31.1438ZM33.2071 32.9606V33.945C32.5912 34.3384 31.9202 34.6713 31.2056 34.934V33.9496C31.9202 33.6869 32.5913 33.354 33.2071 32.9606ZM31.2056 33.9495V34.9339C30.472 35.2035 29.6925 35.3991 28.8793 35.5099V34.5255C29.6925 34.4147 30.4721 34.2191 31.2056 33.9495ZM28.8793 34.5256V35.5099C28.3798 35.5778 27.8765 35.6132 27.3725 35.616V34.6316C27.8765 34.6289 28.3798 34.5935 28.8793 34.5256Z" fill="#6BB1CB"/>
<path d="M34.9183 33.5682V34.5526C34.7901 34.6385 34.6999 34.6957 34.6136 34.7572C33.1186 35.8226 31.4172 36.5254 29.5188 36.8251C28.7526 36.9461 27.9986 37.0071 27.259 37.0071C24.9885 37.0071 22.8497 36.4321 20.8793 35.2477C18.3661 33.7374 16.7792 31.6657 16.1406 29.0663C16.0461 28.6827 16.0131 28.2877 15.9498 27.8986C15.9392 27.8326 15.9186 27.7682 15.9026 27.7027V26.7183C15.9186 26.7838 15.9393 26.8482 15.9498 26.9142C16.0131 27.3035 16.0462 27.6984 16.1406 28.082C16.7792 30.6814 18.3661 32.753 20.8793 34.2633C22.8496 35.4478 24.9885 36.0227 27.259 36.0227C27.9987 36.0227 28.7526 35.9617 29.5188 35.8408C31.4173 35.5411 33.1187 34.8383 34.6136 33.7729C34.6999 33.7114 34.7903 33.6541 34.9183 33.5682Z" fill="#6BB1CB"/>
<path d="M34.9183 33.5682V34.5526C34.7901 34.6385 34.6999 34.6957 34.6136 34.7572C34.4479 34.8753 34.2792 34.9892 34.1077 35.0988V34.1144C34.2788 34.0051 34.4475 33.8911 34.6136 33.7728C34.6999 33.7114 34.7903 33.6541 34.9183 33.5682Z" fill="#6BB1CB"/>
<path d="M34.1077 34.1144V35.0988C33.393 35.5559 32.6307 35.9341 31.8344 36.2267V35.2424C32.6307 34.9497 33.393 34.5715 34.1077 34.1144Z" fill="#6BB1CB"/>
<path d="M31.8345 35.2424V36.2267C31.0986 36.4971 30.3265 36.6976 29.5188 36.8252C29.4126 36.8419 29.3067 36.8575 29.2009 36.8719V35.8875C29.3067 35.8731 29.4126 35.8575 29.5188 35.8408C30.3265 35.7132 31.0987 35.5127 31.8345 35.2424Z" fill="#6BB1CB"/>
<path d="M29.201 35.8875V36.8719C28.5439 36.9618 27.8962 37.0071 27.259 37.0071C24.9885 37.0071 22.8497 36.4321 20.8793 35.2477C18.3661 33.7373 16.7792 31.6656 16.1406 29.0663C16.0461 28.6826 16.0131 28.2877 15.9498 27.8985C15.9392 27.8326 15.9186 27.7681 15.9026 27.7026V26.7182C15.9186 26.7837 15.9393 26.8481 15.9498 26.9142C16.0131 27.3034 16.0462 27.6983 16.1406 28.0819C16.7792 30.6813 18.3661 32.7529 20.8793 34.2633C22.8496 35.4476 24.9885 36.0226 27.259 36.0226C27.8962 36.0227 28.5438 35.9774 29.201 35.8875Z" fill="#6BB1CB"/>
<path d="M42.3077 38.0586C42.4885 38.2157 42.6266 38.4095 42.7849 38.5859V38.9046C42.75 38.9644 42.7181 39.0255 42.681 39.0838C42.5321 39.3185 42.2665 39.448 41.9908 39.448C41.8353 39.448 41.6768 39.4069 41.534 39.3205C41.4341 39.2607 41.348 39.1834 41.2612 39.1087C39.2073 37.331 37.1543 35.5522 35.1022 33.7724C35.0343 33.7134 34.9835 33.6409 34.9184 33.5683C34.7903 33.6542 34.7 33.7114 34.6137 33.7729C33.1187 34.8383 31.4173 35.5411 29.5189 35.8408C28.7527 35.9618 27.9987 36.0228 27.2591 36.0228C24.9886 36.0228 22.8498 35.4478 20.8794 34.2635C18.3662 32.753 16.7792 30.6814 16.1407 28.082C16.0464 27.6984 16.0132 27.3034 15.9499 26.9142C15.9393 26.8483 15.9187 26.7838 15.9027 26.7183V25.4907C15.918 25.4248 15.937 25.3593 15.9493 25.2927C16.0479 24.7633 16.1034 24.2247 16.251 23.7056C16.8163 21.7163 18.004 20.0463 19.7695 18.6822C21.3534 17.4582 23.1868 16.6781 25.2717 16.3436C25.7164 16.2726 26.1658 16.227 26.6135 16.1693H28.1362C28.5827 16.2276 29.0321 16.2741 29.4763 16.3457C31.5518 16.6807 33.3786 17.4566 34.9561 18.6755C36.8503 20.1389 38.0964 21.9362 38.5838 24.0942C39.2629 27.1003 38.504 29.8281 36.3364 32.2558C36.2354 32.3693 36.1326 32.4823 35.9838 32.6475C36.0647 32.6946 36.1563 32.7304 36.2236 32.7883C38.2542 34.5431 40.2836 36.298 42.3077 38.0586ZM27.3106 34.6316C32.827 34.6004 37.2006 30.8149 37.21 26.0886C37.2188 21.4057 32.795 17.5838 27.4131 17.5692C21.9358 17.5834 17.5183 21.3989 17.5144 26.0522C17.5143 26.0705 17.5144 26.0887 17.5145 26.107C17.5456 30.8083 21.9286 34.617 27.3106 34.6316Z" fill="#8FC4D7"/>
<path d="M42.7849 38.9047V39.8891C42.7501 39.9489 42.7182 40.0099 42.681 40.0682C42.5322 40.3029 42.2665 40.4324 41.9909 40.4324C41.8354 40.4324 41.6769 40.3914 41.5341 40.3049C41.4342 40.2452 41.348 40.1679 41.2613 40.0931C39.2073 38.3154 37.1543 36.5366 35.1022 34.7568C35.0343 34.6978 34.9836 34.6253 34.9185 34.5527V33.5683C34.9835 33.641 35.0343 33.7136 35.1022 33.7724C37.154 35.5523 39.2077 37.3308 41.2613 39.1087C41.3482 39.1835 41.4342 39.2608 41.5341 39.3206C41.6718 39.404 41.8298 39.4481 41.9909 39.448C42.2665 39.448 42.5322 39.3186 42.681 39.0838C42.7183 39.0254 42.7501 38.9644 42.7849 38.9047Z" fill="#6BB1CB"/>
<path d="M42.7849 38.9047V39.8891C42.75 39.9489 42.7182 40.0099 42.681 40.0682C42.6625 40.0974 42.642 40.1251 42.6201 40.1511V39.1666C42.6423 39.1405 42.6627 39.1128 42.681 39.0838C42.7182 39.0254 42.7501 38.9644 42.7849 38.9047ZM42.6201 39.1665V40.1509C42.5704 40.2094 42.5122 40.2602 42.4475 40.3015V39.3171C42.5122 39.2758 42.5704 39.225 42.6201 39.1665ZM42.4474 39.3172V40.3015C42.3978 40.3333 42.3447 40.3594 42.2891 40.3798V39.3953C42.3445 39.3751 42.3976 39.3489 42.4474 39.3172Z" fill="#6BB1CB"/>
<path d="M42.2891 39.3953V40.3798C42.2316 40.401 42.1712 40.4159 42.1096 40.4243V39.44C42.1712 39.4315 42.2315 39.4165 42.2891 39.3953ZM42.1095 39.4399V40.4243C41.9097 40.4516 41.7065 40.4094 41.5341 40.3049C41.4342 40.2451 41.348 40.1678 41.2613 40.0931C39.2073 38.3154 37.1543 36.5366 35.1022 34.7568C35.0343 34.6977 34.9836 34.6252 34.9185 34.5527V33.5682C34.9835 33.6409 35.0343 33.7135 35.1022 33.7724C37.154 35.5523 39.2077 37.3308 41.2613 39.1087C41.3482 39.1834 41.4342 39.2607 41.5341 39.3205C41.7066 39.425 41.9097 39.4671 42.1095 39.4399Z" fill="#6BB1CB"/>
</svg>
