<svg xmlns="http://www.w3.org/2000/svg" width="512" height="512" viewBox="0 0 512 512" version="1.1"><path d="M 238.500 50.125 C 227.934 50.786, 215.729 52.818, 202.500 56.118 C 166.365 65.132, 126.265 90.096, 101.440 119.031 C 69.239 156.562, 52.040 203.516, 51.872 254.351 C 51.701 305.723, 68.832 352.489, 101.605 390.120 C 112.042 402.104, 118.561 408.157, 131.150 417.547 C 156.356 436.348, 181.926 448.041, 214.500 455.662 C 226.065 458.368, 227.461 458.469, 253 458.461 C 283.310 458.452, 289.095 457.592, 314.372 449.339 C 339.580 441.108, 361.305 428.727, 384.370 409.445 C 414.494 384.262, 438.210 346.157, 447.839 307.469 C 455.058 278.463, 456.361 254.847, 452.362 225.500 C 445.428 174.619, 420.020 129.257, 379.525 95.462 C 349.774 70.634, 305.463 52.518, 269.484 50.473 C 252.699 49.520, 248.872 49.477, 238.500 50.125 M 247.763 72.565 C 244.416 74.381, 242 78.808, 242 83.122 C 242 85.634, 242.990 87.292, 246.500 90.655 C 250.668 94.648, 251 95.338, 251 100.008 C 251 106.094, 250.419 106.419, 237.901 107.349 C 209.993 109.423, 180.990 123.057, 157.929 144.941 C 153.843 148.819, 150.347 151.993, 150.159 151.996 C 149.972 151.998, 147.385 149.920, 144.409 147.379 C 139.411 143.108, 139 142.429, 139 138.434 C 139 132.670, 135.940 129.053, 130.498 128.386 C 118.294 126.888, 113.441 143.909, 124.714 148.671 C 128.107 150.105, 128.935 150.116, 132.683 148.783 L 136.867 147.296 141.563 152.064 L 146.260 156.832 140.531 164.666 C 134.174 173.361, 125.233 190.792, 124.354 196.205 C 123.944 198.731, 124.189 199.858, 125.234 200.259 C 127.684 201.200, 128.806 199.733, 132.342 190.963 C 134.219 186.308, 137.158 180.121, 138.874 177.212 C 142.724 170.684, 149.821 161, 150.755 161 C 151.135 161, 154.251 163.780, 157.678 167.177 L 163.911 173.354 160.568 177.927 C 155.594 184.732, 149.865 196.056, 150.203 198.412 C 150.366 199.549, 151.255 200.623, 152.179 200.799 C 153.385 201.029, 154.802 199.204, 157.217 194.310 C 160.419 187.817, 167.784 177, 169.001 177 C 169.317 177, 171.750 179.208, 174.409 181.907 L 179.243 186.815 175.121 192.570 C 172.855 195.736, 171 198.702, 171 199.163 C 171 199.623, 189 200, 211 200 L 251 200 251 208.570 C 251 216.885, 251.067 217.130, 253.250 216.820 C 255.348 216.522, 255.520 215.942, 255.790 208.250 L 256.081 200 295.040 200 C 316.468 200, 333.998 199.662, 333.996 199.250 C 333.989 197.824, 329.709 191.480, 325.169 186.165 C 309.800 168.173, 279.672 153, 259.316 153 L 256 153 256 144.371 L 256 135.742 263.125 136.444 C 272.533 137.371, 283.211 140.165, 293.719 144.449 C 316.856 153.881, 337.895 172.979, 348.654 194.315 C 351.143 199.251, 352.560 201.040, 353.795 200.804 C 354.733 200.626, 355.646 199.457, 355.824 198.207 C 356.190 195.639, 350.682 185.073, 345.354 178.124 L 341.809 173.500 348.041 167.750 C 351.469 164.588, 354.589 162, 354.976 162 C 355.362 162, 358.175 165.488, 361.227 169.750 C 366.898 177.671, 372.787 188.610, 374.913 195.170 C 376.486 200.023, 378.609 201.835, 380.473 199.914 C 381.636 198.715, 381.616 197.815, 380.341 194 C 377.545 185.628, 371.211 173.537, 365.592 165.844 C 362.516 161.633, 360 157.766, 360 157.251 C 360 156.735, 362.208 154.451, 364.906 152.176 C 369.458 148.338, 370.038 148.117, 372.924 149.123 C 376.921 150.517, 380.790 149.532, 384.250 146.242 C 389.195 141.538, 387.619 132.340, 381.316 129.117 C 374.107 125.431, 366 130.242, 366 138.207 C 366 142.147, 365.489 143.073, 360.717 147.786 L 355.434 153.003 349.967 147.408 C 344.377 141.687, 331.728 131.488, 324.419 126.808 C 307.978 116.282, 285.404 108.953, 261.750 106.462 L 256 105.856 256 99.495 C 256 93.942, 256.263 93.051, 258.069 92.478 C 260.748 91.628, 263.991 86.278, 263.996 82.700 C 264.002 78.367, 261.222 73.991, 257.466 72.421 C 253.226 70.650, 251.238 70.679, 247.763 72.565 M 212.190 85.750 C 212.376 86.713, 213.190 87.500, 214 87.500 C 214.810 87.500, 215.624 86.713, 215.810 85.750 C 216.046 84.522, 215.506 84, 214 84 C 212.494 84, 211.954 84.522, 212.190 85.750 M 291.173 85.659 C 291.368 86.672, 292.196 87.500, 293.014 87.500 C 295.157 87.500, 294.848 84.594, 292.659 84.173 C 291.323 83.916, 290.916 84.323, 291.173 85.659 M 178.688 95.646 C 177.272 97.061, 178.073 99, 180.073 99 C 181.471 99, 182.041 98.457, 181.823 97.333 C 181.466 95.492, 179.759 94.574, 178.688 95.646 M 324.688 95.646 C 323.272 97.061, 324.073 99, 326.073 99 C 327.471 99, 328.041 98.457, 327.823 97.333 C 327.466 95.492, 325.759 94.574, 324.688 95.646 M 349.329 111.584 C 348.613 113.451, 350.390 115.495, 351.913 114.554 C 353.501 113.573, 353.241 111.306, 351.462 110.624 C 350.571 110.282, 349.674 110.686, 349.329 111.584 M 153.570 111.887 C 152.889 112.988, 155.438 115.229, 156.342 114.325 C 156.704 113.963, 157 113.067, 157 112.333 C 157 110.844, 154.422 110.508, 153.570 111.887 M 230.835 113.543 C 216.587 115.763, 199.592 122.137, 185.140 130.681 C 176.388 135.855, 162.689 147.080, 158.184 152.767 L 155.102 156.659 161.415 162.916 L 167.728 169.172 174.816 162.181 C 184.332 152.797, 196.806 144.684, 209.892 139.368 C 221.177 134.784, 235.669 131.068, 242.500 131.008 C 250.930 130.934, 251 130.850, 251 120.883 L 251 112 245.250 112.097 C 242.088 112.150, 235.601 112.801, 230.835 113.543 M 255.667 112.667 C 255.300 113.033, 255 116.868, 255 121.188 C 255 130.513, 254.623 130.223, 269 131.956 C 291.100 134.620, 314.914 146.287, 332.500 163.067 L 338.500 168.792 344.852 162.928 L 351.203 157.064 345.352 150.923 C 331.193 136.064, 308.715 122.624, 287.898 116.573 C 275.944 113.098, 257.474 110.859, 255.667 112.667 M 234.342 137.479 C 214.831 141.020, 193.456 151.918, 179 165.695 L 172.500 171.890 177.678 177.111 L 182.856 182.332 188.437 177.232 C 202.522 164.359, 223.361 155.206, 243.054 153.242 L 250.500 152.500 250.790 144.250 L 251.081 136 246.290 136.090 C 243.656 136.140, 238.279 136.765, 234.342 137.479 M 251.829 168.250 C 251.322 198.646, 251.423 200.093, 253.933 198.541 C 254.631 198.110, 255 190.986, 255 177.941 C 255 160.882, 254.783 158, 253.500 158 C 252.275 158, 251.969 159.882, 251.829 168.250 M 402.379 178.455 C 401.482 180.792, 403.360 182.477, 404.855 180.675 C 405.763 179.581, 405.689 178.987, 404.524 178.020 C 403.300 177.004, 402.905 177.084, 402.379 178.455 M 100.190 179.750 C 100.376 180.713, 101.190 181.500, 102 181.500 C 102.810 181.500, 103.624 180.713, 103.810 179.750 C 104.046 178.522, 103.506 178, 102 178 C 100.494 178, 99.954 178.522, 100.190 179.750 M 370.929 224.306 C 360.571 227.238, 352.808 233.920, 348.101 243.954 C 344.477 251.680, 344.382 264.940, 347.893 272.760 C 351.533 280.866, 360.277 288.419, 369.137 291.110 C 386.535 296.395, 402.973 289.550, 411.341 273.537 C 414.267 267.937, 414.496 266.776, 414.497 257.500 C 414.498 248.578, 414.209 246.951, 411.813 242.408 C 408.308 235.765, 399.400 227.665, 393.319 225.593 C 386.687 223.333, 376.445 222.745, 370.929 224.306 M 116.454 225.258 C 116.189 225.950, 116.091 241.138, 116.236 259.008 L 116.500 291.500 124.730 291.790 L 132.960 292.080 133.230 271.076 L 133.500 250.072 151.318 271.036 L 169.137 292 177.582 292 L 186.027 292 185.763 258.250 L 185.500 224.500 177.270 224.210 L 169.041 223.920 168.770 244.697 L 168.500 265.475 162.122 257.988 C 158.614 253.869, 150.581 244.537, 144.272 237.250 L 132.799 224 124.868 224 C 119.419 224, 116.786 224.394, 116.454 225.258 M 200.010 224.750 C 200.015 225.162, 201.643 227.525, 203.628 230 C 208.450 236.013, 222.814 255.337, 226.804 261.180 C 229.997 265.856, 230 265.873, 230 278.930 L 230 292 238 292 L 246 292 246 278.881 L 246 265.762 251.506 257.905 C 254.534 253.584, 261.284 244.410, 266.506 237.518 C 271.728 230.627, 276 224.766, 276 224.494 C 276 224.222, 271.519 224, 266.043 224 L 256.085 224 253.590 227.250 C 252.218 229.037, 248.340 234.213, 244.973 238.750 C 241.606 243.287, 238.514 247, 238.103 247 C 237.692 247, 233.596 241.825, 229 235.500 L 220.644 224 210.322 224 C 204.645 224, 200.004 224.338, 200.010 224.750 M 286.769 241.750 C 286.475 251.512, 286.294 266.700, 286.367 275.500 L 286.500 291.500 312 291.500 L 337.500 291.500 337.500 283.500 L 337.500 275.500 320.500 275.500 L 303.500 275.500 303.233 249.750 L 302.966 224 295.135 224 L 287.305 224 286.769 241.750 M 371.907 243.324 C 358.060 250.628, 359.816 270.569, 374.700 275.028 C 395.643 281.303, 407.389 251.895, 387.541 242.880 C 382.081 240.399, 377.189 240.539, 371.907 243.324 M 83.147 254.323 C 81.758 255.997, 82.527 258.604, 84.650 259.419 C 87.085 260.353, 90.159 258.128, 89.811 255.682 C 89.437 253.060, 84.954 252.145, 83.147 254.323 M 251.667 293.667 C 251.300 294.033, 251 298.758, 251 304.167 L 251 314 211.059 314 C 189.091 314, 170.887 314.373, 170.605 314.830 C 169.748 316.217, 178.971 329.121, 185.426 335.564 C 200.059 350.172, 221.395 359.791, 243.266 361.640 L 251 362.293 251 367.147 L 251 372 245.588 372 C 234.096 372, 216.183 367.137, 202.717 360.360 C 184.001 350.942, 168.489 336.517, 159.047 319.750 C 156.544 315.305, 155.277 314, 153.464 314 C 152.174 314, 150.827 314.471, 150.471 315.048 C 149.186 317.126, 160.475 333.269, 170 342.975 C 189.289 362.629, 213.043 374.133, 240.785 377.255 L 251.070 378.413 250.785 387.456 L 250.500 396.500 244.500 396.183 C 218.779 394.824, 193.940 386.257, 173.061 371.543 C 157.651 360.683, 139.184 338.032, 132.264 321.500 C 129.779 315.564, 128.928 314.452, 126.667 314.184 C 123.219 313.774, 123.255 314.919, 126.976 323.943 C 130.425 332.306, 135.461 340.874, 141.185 348.114 L 145.215 353.213 140.506 357.994 C 135.988 362.581, 135.688 362.719, 133.148 361.394 C 129.554 359.519, 127.081 359.653, 123.353 361.926 C 117.362 365.579, 116.760 375.617, 122.299 379.497 C 125.553 381.776, 133.146 381.444, 135.873 378.904 C 138.679 376.289, 140.275 372.233, 139.583 369.474 C 139.188 367.902, 140.296 366.148, 143.971 362.528 L 148.887 357.686 156.997 365.315 C 180.089 387.038, 211.684 400.142, 246 402.227 L 250.500 402.500 250.796 408.667 C 251.078 414.549, 250.957 414.912, 248.181 416.552 C 244.332 418.826, 242 422.958, 242 427.504 C 242 432.992, 247.248 438, 253 438 C 256.443 438, 257.813 437.387, 260.600 434.600 C 263.292 431.908, 263.999 430.398, 263.996 427.350 C 263.992 422.863, 261.036 417.464, 258.069 416.522 C 256.245 415.943, 256 415.062, 256 409.080 L 256 402.295 264.537 401.639 C 296.763 399.162, 326.592 385.979, 349.191 364.227 L 355.881 357.787 360.940 362.143 C 365.493 366.064, 365.999 366.912, 366 370.615 C 366 375.689, 368.822 379.581, 373.421 380.851 C 378.171 382.162, 381.648 381.207, 384.511 377.805 C 391.438 369.572, 383.117 357.323, 372.995 360.852 C 369.258 362.155, 367.835 361.552, 363.153 356.685 L 359.807 353.206 365.462 345.853 C 371.367 338.174, 379.486 322.834, 380.601 317.250 C 381.205 314.224, 381.063 314, 378.545 314 C 376.283 314, 375.572 314.698, 374.214 318.250 C 369.823 329.732, 358.428 348, 355.657 348 C 355.050 348, 351.772 345.243, 348.372 341.873 L 342.191 335.747 346.701 329.623 C 351.325 323.345, 355 316.887, 355 315.040 C 355 314.468, 353.954 314, 352.675 314 C 350.873 314, 349.296 315.662, 345.677 321.376 C 339.004 331.909, 338.643 332.110, 334.267 327.733 L 330.654 324.121 333.327 320.082 C 334.797 317.860, 336 315.583, 336 315.021 C 336 314.343, 322.560 314, 296 314 L 256 314 256 304.700 C 256 298.800, 255.561 294.961, 254.800 294.200 C 253.441 292.841, 252.631 292.703, 251.667 293.667 M 251.793 338.250 C 251.453 359.457, 251.584 361.097, 253.562 360.338 C 255.721 359.509, 255.702 320, 253.543 320 C 252.330 320, 252.036 323.066, 251.793 338.250 M 323.626 331.448 C 321.444 334.779, 309.989 343.829, 301.675 348.792 C 292.423 354.314, 279.548 358.815, 268.045 360.549 C 262.795 361.341, 257.938 361.991, 257.250 361.994 C 256.413 361.998, 256 363.698, 256 367.143 L 256 372.286 263.750 371.708 C 285.154 370.113, 310.854 358.540, 326.901 343.269 L 334.500 336.038 330.765 332.519 C 326.329 328.340, 325.722 328.249, 323.626 331.448 M 100.500 334 C 99.663 335.354, 100.792 337, 102.559 337 C 103.352 337, 104 336.100, 104 335 C 104 332.930, 101.587 332.240, 100.500 334 M 401.500 334 C 400.663 335.354, 401.792 337, 403.559 337 C 404.352 337, 405 336.100, 405 335 C 405 332.930, 402.587 332.240, 401.500 334 M 333.453 345.129 C 331.279 347.399, 325.912 351.945, 321.528 355.229 C 304.631 367.887, 285.413 375.060, 261.750 377.541 L 256 378.144 256 387.072 L 256 396 262.593 396 C 270.324 396, 286.421 392.902, 296.866 389.403 C 313.288 383.903, 333.010 372.073, 344.777 360.665 L 352.055 353.609 345.806 347.304 C 342.370 343.837, 339.074 341, 338.482 341 C 337.890 341, 335.627 342.858, 333.453 345.129 M 349.598 394.736 C 348.281 396.052, 349.117 398, 351 398 C 352.100 398, 353 397.373, 353 396.607 C 353 395.099, 350.571 393.762, 349.598 394.736 M 153.188 396.739 C 153.690 399.345, 157 399.636, 157 397.073 C 157 395.642, 156.358 395, 154.927 395 C 153.496 395, 152.957 395.539, 153.188 396.739 M 178.323 411.601 C 177.615 413.445, 180.034 415.366, 181.374 414.026 C 182.466 412.934, 181.464 410, 180 410 C 179.415 410, 178.661 410.720, 178.323 411.601 M 324.323 411.601 C 323.615 413.445, 326.034 415.366, 327.374 414.026 C 328.466 412.934, 327.464 410, 326 410 C 325.415 410, 324.661 410.720, 324.323 411.601 M 212.667 422.667 C 211.290 424.043, 212.073 426, 214 426 C 215.333 426, 216 425.333, 216 424 C 216 422.073, 214.043 421.290, 212.667 422.667 M 291.688 422.646 C 290.314 424.020, 291.026 426.142, 292.750 425.810 C 293.712 425.624, 294.500 424.841, 294.500 424.070 C 294.500 422.491, 292.736 421.598, 291.688 422.646" stroke="none" fill="#f5f8f8" fill-rule="evenodd"/><path d="M -0 256.006 L 0 492.004 256.250 491.752 L 512.500 491.500 512.752 255.500 L 513.004 19.500 256.502 19.754 L -0 20.008 -0 256.006 M 0.492 256 C 0.492 386.075, 0.608 439.287, 0.750 374.250 C 0.892 309.212, 0.892 202.787, 0.750 137.750 C 0.608 72.712, 0.492 125.925, 0.492 256 M 238.500 50.125 C 227.934 50.786, 215.729 52.818, 202.500 56.118 C 166.365 65.132, 126.265 90.096, 101.440 119.031 C 69.239 156.562, 52.040 203.516, 51.872 254.351 C 51.701 305.723, 68.832 352.489, 101.605 390.120 C 112.042 402.104, 118.561 408.157, 131.150 417.547 C 156.356 436.348, 181.926 448.041, 214.500 455.662 C 226.065 458.368, 227.461 458.469, 253 458.461 C 283.310 458.452, 289.095 457.592, 314.372 449.339 C 339.580 441.108, 361.305 428.727, 384.370 409.445 C 414.494 384.262, 438.210 346.157, 447.839 307.469 C 455.058 278.463, 456.361 254.847, 452.362 225.500 C 445.428 174.619, 420.020 129.257, 379.525 95.462 C 349.774 70.634, 305.463 52.518, 269.484 50.473 C 252.699 49.520, 248.872 49.477, 238.500 50.125 M 247.763 72.565 C 244.416 74.381, 242 78.808, 242 83.122 C 242 85.634, 242.990 87.292, 246.500 90.655 C 250.668 94.648, 251 95.338, 251 100.008 C 251 106.094, 250.419 106.419, 237.901 107.349 C 209.993 109.423, 180.990 123.057, 157.929 144.941 C 153.843 148.819, 150.347 151.993, 150.159 151.996 C 149.972 151.998, 147.385 149.920, 144.409 147.379 C 139.411 143.108, 139 142.429, 139 138.434 C 139 132.670, 135.940 129.053, 130.498 128.386 C 118.294 126.888, 113.441 143.909, 124.714 148.671 C 128.107 150.105, 128.935 150.116, 132.683 148.783 L 136.867 147.296 141.563 152.064 L 146.260 156.832 140.531 164.666 C 134.174 173.361, 125.233 190.792, 124.354 196.205 C 123.944 198.731, 124.189 199.858, 125.234 200.259 C 127.684 201.200, 128.806 199.733, 132.342 190.963 C 134.219 186.308, 137.158 180.121, 138.874 177.212 C 142.724 170.684, 149.821 161, 150.755 161 C 151.135 161, 154.251 163.780, 157.678 167.177 L 163.911 173.354 160.568 177.927 C 155.594 184.732, 149.865 196.056, 150.203 198.412 C 150.366 199.549, 151.255 200.623, 152.179 200.799 C 153.385 201.029, 154.802 199.204, 157.217 194.310 C 160.419 187.817, 167.784 177, 169.001 177 C 169.317 177, 171.750 179.208, 174.409 181.907 L 179.243 186.815 175.121 192.570 C 172.855 195.736, 171 198.702, 171 199.163 C 171 199.623, 189 200, 211 200 L 251 200 251 208.570 C 251 216.885, 251.067 217.130, 253.250 216.820 C 255.348 216.522, 255.520 215.942, 255.790 208.250 L 256.081 200 295.040 200 C 316.468 200, 333.998 199.662, 333.996 199.250 C 333.989 197.824, 329.709 191.480, 325.169 186.165 C 309.800 168.173, 279.672 153, 259.316 153 L 256 153 256 144.371 L 256 135.742 263.125 136.444 C 272.533 137.371, 283.211 140.165, 293.719 144.449 C 316.856 153.881, 337.895 172.979, 348.654 194.315 C 351.143 199.251, 352.560 201.040, 353.795 200.804 C 354.733 200.626, 355.646 199.457, 355.824 198.207 C 356.190 195.639, 350.682 185.073, 345.354 178.124 L 341.809 173.500 348.041 167.750 C 351.469 164.588, 354.589 162, 354.976 162 C 355.362 162, 358.175 165.488, 361.227 169.750 C 366.898 177.671, 372.787 188.610, 374.913 195.170 C 376.486 200.023, 378.609 201.835, 380.473 199.914 C 381.636 198.715, 381.616 197.815, 380.341 194 C 377.545 185.628, 371.211 173.537, 365.592 165.844 C 362.516 161.633, 360 157.766, 360 157.251 C 360 156.735, 362.208 154.451, 364.906 152.176 C 369.458 148.338, 370.038 148.117, 372.924 149.123 C 376.921 150.517, 380.790 149.532, 384.250 146.242 C 389.195 141.538, 387.619 132.340, 381.316 129.117 C 374.107 125.431, 366 130.242, 366 138.207 C 366 142.147, 365.489 143.073, 360.717 147.786 L 355.434 153.003 349.967 147.408 C 344.377 141.687, 331.728 131.488, 324.419 126.808 C 307.978 116.282, 285.404 108.953, 261.750 106.462 L 256 105.856 256 99.495 C 256 93.942, 256.263 93.051, 258.069 92.478 C 260.748 91.628, 263.991 86.278, 263.996 82.700 C 264.002 78.367, 261.222 73.991, 257.466 72.421 C 253.226 70.650, 251.238 70.679, 247.763 72.565 M 212.190 85.750 C 212.376 86.713, 213.190 87.500, 214 87.500 C 214.810 87.500, 215.624 86.713, 215.810 85.750 C 216.046 84.522, 215.506 84, 214 84 C 212.494 84, 211.954 84.522, 212.190 85.750 M 291.173 85.659 C 291.368 86.672, 292.196 87.500, 293.014 87.500 C 295.157 87.500, 294.848 84.594, 292.659 84.173 C 291.323 83.916, 290.916 84.323, 291.173 85.659 M 178.688 95.646 C 177.272 97.061, 178.073 99, 180.073 99 C 181.471 99, 182.041 98.457, 181.823 97.333 C 181.466 95.492, 179.759 94.574, 178.688 95.646 M 324.688 95.646 C 323.272 97.061, 324.073 99, 326.073 99 C 327.471 99, 328.041 98.457, 327.823 97.333 C 327.466 95.492, 325.759 94.574, 324.688 95.646 M 349.329 111.584 C 348.613 113.451, 350.390 115.495, 351.913 114.554 C 353.501 113.573, 353.241 111.306, 351.462 110.624 C 350.571 110.282, 349.674 110.686, 349.329 111.584 M 153.570 111.887 C 152.889 112.988, 155.438 115.229, 156.342 114.325 C 156.704 113.963, 157 113.067, 157 112.333 C 157 110.844, 154.422 110.508, 153.570 111.887 M 230.835 113.543 C 216.587 115.763, 199.592 122.137, 185.140 130.681 C 176.388 135.855, 162.689 147.080, 158.184 152.767 L 155.102 156.659 161.415 162.916 L 167.728 169.172 174.816 162.181 C 184.332 152.797, 196.806 144.684, 209.892 139.368 C 221.177 134.784, 235.669 131.068, 242.500 131.008 C 250.930 130.934, 251 130.850, 251 120.883 L 251 112 245.250 112.097 C 242.088 112.150, 235.601 112.801, 230.835 113.543 M 255.667 112.667 C 255.300 113.033, 255 116.868, 255 121.188 C 255 130.513, 254.623 130.223, 269 131.956 C 291.100 134.620, 314.914 146.287, 332.500 163.067 L 338.500 168.792 344.852 162.928 L 351.203 157.064 345.352 150.923 C 331.193 136.064, 308.715 122.624, 287.898 116.573 C 275.944 113.098, 257.474 110.859, 255.667 112.667 M 234.342 137.479 C 214.831 141.020, 193.456 151.918, 179 165.695 L 172.500 171.890 177.678 177.111 L 182.856 182.332 188.437 177.232 C 202.522 164.359, 223.361 155.206, 243.054 153.242 L 250.500 152.500 250.790 144.250 L 251.081 136 246.290 136.090 C 243.656 136.140, 238.279 136.765, 234.342 137.479 M 251.829 168.250 C 251.322 198.646, 251.423 200.093, 253.933 198.541 C 254.631 198.110, 255 190.986, 255 177.941 C 255 160.882, 254.783 158, 253.500 158 C 252.275 158, 251.969 159.882, 251.829 168.250 M 402.379 178.455 C 401.482 180.792, 403.360 182.477, 404.855 180.675 C 405.763 179.581, 405.689 178.987, 404.524 178.020 C 403.300 177.004, 402.905 177.084, 402.379 178.455 M 100.190 179.750 C 100.376 180.713, 101.190 181.500, 102 181.500 C 102.810 181.500, 103.624 180.713, 103.810 179.750 C 104.046 178.522, 103.506 178, 102 178 C 100.494 178, 99.954 178.522, 100.190 179.750 M 370.929 224.306 C 360.571 227.238, 352.808 233.920, 348.101 243.954 C 344.477 251.680, 344.382 264.940, 347.893 272.760 C 351.533 280.866, 360.277 288.419, 369.137 291.110 C 386.535 296.395, 402.973 289.550, 411.341 273.537 C 414.267 267.937, 414.496 266.776, 414.497 257.500 C 414.498 248.578, 414.209 246.951, 411.813 242.408 C 408.308 235.765, 399.400 227.665, 393.319 225.593 C 386.687 223.333, 376.445 222.745, 370.929 224.306 M 116.454 225.258 C 116.189 225.950, 116.091 241.138, 116.236 259.008 L 116.500 291.500 124.730 291.790 L 132.960 292.080 133.230 271.076 L 133.500 250.072 151.318 271.036 L 169.137 292 177.582 292 L 186.027 292 185.763 258.250 L 185.500 224.500 177.270 224.210 L 169.041 223.920 168.770 244.697 L 168.500 265.475 162.122 257.988 C 158.614 253.869, 150.581 244.537, 144.272 237.250 L 132.799 224 124.868 224 C 119.419 224, 116.786 224.394, 116.454 225.258 M 200.010 224.750 C 200.015 225.162, 201.643 227.525, 203.628 230 C 208.450 236.013, 222.814 255.337, 226.804 261.180 C 229.997 265.856, 230 265.873, 230 278.930 L 230 292 238 292 L 246 292 246 278.881 L 246 265.762 251.506 257.905 C 254.534 253.584, 261.284 244.410, 266.506 237.518 C 271.728 230.627, 276 224.766, 276 224.494 C 276 224.222, 271.519 224, 266.043 224 L 256.085 224 253.590 227.250 C 252.218 229.037, 248.340 234.213, 244.973 238.750 C 241.606 243.287, 238.514 247, 238.103 247 C 237.692 247, 233.596 241.825, 229 235.500 L 220.644 224 210.322 224 C 204.645 224, 200.004 224.338, 200.010 224.750 M 286.769 241.750 C 286.475 251.512, 286.294 266.700, 286.367 275.500 L 286.500 291.500 312 291.500 L 337.500 291.500 337.500 283.500 L 337.500 275.500 320.500 275.500 L 303.500 275.500 303.233 249.750 L 302.966 224 295.135 224 L 287.305 224 286.769 241.750 M 371.907 243.324 C 358.060 250.628, 359.816 270.569, 374.700 275.028 C 395.643 281.303, 407.389 251.895, 387.541 242.880 C 382.081 240.399, 377.189 240.539, 371.907 243.324 M 83.147 254.323 C 81.758 255.997, 82.527 258.604, 84.650 259.419 C 87.085 260.353, 90.159 258.128, 89.811 255.682 C 89.437 253.060, 84.954 252.145, 83.147 254.323 M 251.667 293.667 C 251.300 294.033, 251 298.758, 251 304.167 L 251 314 211.059 314 C 189.091 314, 170.887 314.373, 170.605 314.830 C 169.748 316.217, 178.971 329.121, 185.426 335.564 C 200.059 350.172, 221.395 359.791, 243.266 361.640 L 251 362.293 251 367.147 L 251 372 245.588 372 C 234.096 372, 216.183 367.137, 202.717 360.360 C 184.001 350.942, 168.489 336.517, 159.047 319.750 C 156.544 315.305, 155.277 314, 153.464 314 C 152.174 314, 150.827 314.471, 150.471 315.048 C 149.186 317.126, 160.475 333.269, 170 342.975 C 189.289 362.629, 213.043 374.133, 240.785 377.255 L 251.070 378.413 250.785 387.456 L 250.500 396.500 244.500 396.183 C 218.779 394.824, 193.940 386.257, 173.061 371.543 C 157.651 360.683, 139.184 338.032, 132.264 321.500 C 129.779 315.564, 128.928 314.452, 126.667 314.184 C 123.219 313.774, 123.255 314.919, 126.976 323.943 C 130.425 332.306, 135.461 340.874, 141.185 348.114 L 145.215 353.213 140.506 357.994 C 135.988 362.581, 135.688 362.719, 133.148 361.394 C 129.554 359.519, 127.081 359.653, 123.353 361.926 C 117.362 365.579, 116.760 375.617, 122.299 379.497 C 125.553 381.776, 133.146 381.444, 135.873 378.904 C 138.679 376.289, 140.275 372.233, 139.583 369.474 C 139.188 367.902, 140.296 366.148, 143.971 362.528 L 148.887 357.686 156.997 365.315 C 180.089 387.038, 211.684 400.142, 246 402.227 L 250.500 402.500 250.796 408.667 C 251.078 414.549, 250.957 414.912, 248.181 416.552 C 244.332 418.826, 242 422.958, 242 427.504 C 242 432.992, 247.248 438, 253 438 C 256.443 438, 257.813 437.387, 260.600 434.600 C 263.292 431.908, 263.999 430.398, 263.996 427.350 C 263.992 422.863, 261.036 417.464, 258.069 416.522 C 256.245 415.943, 256 415.062, 256 409.080 L 256 402.295 264.537 401.639 C 296.763 399.162, 326.592 385.979, 349.191 364.227 L 355.881 357.787 360.940 362.143 C 365.493 366.064, 365.999 366.912, 366 370.615 C 366 375.689, 368.822 379.581, 373.421 380.851 C 378.171 382.162, 381.648 381.207, 384.511 377.805 C 391.438 369.572, 383.117 357.323, 372.995 360.852 C 369.258 362.155, 367.835 361.552, 363.153 356.685 L 359.807 353.206 365.462 345.853 C 371.367 338.174, 379.486 322.834, 380.601 317.250 C 381.205 314.224, 381.063 314, 378.545 314 C 376.283 314, 375.572 314.698, 374.214 318.250 C 369.823 329.732, 358.428 348, 355.657 348 C 355.050 348, 351.772 345.243, 348.372 341.873 L 342.191 335.747 346.701 329.623 C 351.325 323.345, 355 316.887, 355 315.040 C 355 314.468, 353.954 314, 352.675 314 C 350.873 314, 349.296 315.662, 345.677 321.376 C 339.004 331.909, 338.643 332.110, 334.267 327.733 L 330.654 324.121 333.327 320.082 C 334.797 317.860, 336 315.583, 336 315.021 C 336 314.343, 322.560 314, 296 314 L 256 314 256 304.700 C 256 298.800, 255.561 294.961, 254.800 294.200 C 253.441 292.841, 252.631 292.703, 251.667 293.667 M 251.793 338.250 C 251.453 359.457, 251.584 361.097, 253.562 360.338 C 255.721 359.509, 255.702 320, 253.543 320 C 252.330 320, 252.036 323.066, 251.793 338.250 M 323.626 331.448 C 321.444 334.779, 309.989 343.829, 301.675 348.792 C 292.423 354.314, 279.548 358.815, 268.045 360.549 C 262.795 361.341, 257.938 361.991, 257.250 361.994 C 256.413 361.998, 256 363.698, 256 367.143 L 256 372.286 263.750 371.708 C 285.154 370.113, 310.854 358.540, 326.901 343.269 L 334.500 336.038 330.765 332.519 C 326.329 328.340, 325.722 328.249, 323.626 331.448 M 100.500 334 C 99.663 335.354, 100.792 337, 102.559 337 C 103.352 337, 104 336.100, 104 335 C 104 332.930, 101.587 332.240, 100.500 334 M 401.500 334 C 400.663 335.354, 401.792 337, 403.559 337 C 404.352 337, 405 336.100, 405 335 C 405 332.930, 402.587 332.240, 401.500 334 M 333.453 345.129 C 331.279 347.399, 325.912 351.945, 321.528 355.229 C 304.631 367.887, 285.413 375.060, 261.750 377.541 L 256 378.144 256 387.072 L 256 396 262.593 396 C 270.324 396, 286.421 392.902, 296.866 389.403 C 313.288 383.903, 333.010 372.073, 344.777 360.665 L 352.055 353.609 345.806 347.304 C 342.370 343.837, 339.074 341, 338.482 341 C 337.890 341, 335.627 342.858, 333.453 345.129 M 349.598 394.736 C 348.281 396.052, 349.117 398, 351 398 C 352.100 398, 353 397.373, 353 396.607 C 353 395.099, 350.571 393.762, 349.598 394.736 M 153.188 396.739 C 153.690 399.345, 157 399.636, 157 397.073 C 157 395.642, 156.358 395, 154.927 395 C 153.496 395, 152.957 395.539, 153.188 396.739 M 178.323 411.601 C 177.615 413.445, 180.034 415.366, 181.374 414.026 C 182.466 412.934, 181.464 410, 180 410 C 179.415 410, 178.661 410.720, 178.323 411.601 M 324.323 411.601 C 323.615 413.445, 326.034 415.366, 327.374 414.026 C 328.466 412.934, 327.464 410, 326 410 C 325.415 410, 324.661 410.720, 324.323 411.601 M 212.667 422.667 C 211.290 424.043, 212.073 426, 214 426 C 215.333 426, 216 425.333, 216 424 C 216 422.073, 214.043 421.290, 212.667 422.667 M 291.688 422.646 C 290.314 424.020, 291.026 426.142, 292.750 425.810 C 293.712 425.624, 294.500 424.841, 294.500 424.070 C 294.500 422.491, 292.736 421.598, 291.688 422.646" stroke="none" fill="#dc3833" fill-rule="evenodd"/></svg>